<svg width="467" height="297" xmlns="http://www.w3.org/2000/svg" xmlns:xlink="http://www.w3.org/1999/xlink" xml:space="preserve" overflow="hidden"><g transform="translate(-748 -142)"><path d="M73.3532 62.1907 437.841 62.1907 437.841 169.715 73.3532 169.715Z" fill="#FFFFFF" transform="matrix(1 0 0 1.00051 748.228 120.404)"/><path d="M89.9829 169.715 89.9829 173.36" stroke="#000000" stroke-width="0.809846" stroke-linejoin="round" stroke-miterlimit="10" fill="none" transform="matrix(1 0 0 1.00051 748.228 120.404)"/><path d="M157.869 169.715 157.869 173.36" stroke="#000000" stroke-width="0.809846" stroke-linejoin="round" stroke-miterlimit="10" fill="none" transform="matrix(1 0 0 1.00051 748.228 120.404)"/><path d="M225.982 169.715 225.982 173.36" stroke="#000000" stroke-width="0.809846" stroke-linejoin="round" stroke-miterlimit="10" fill="none" transform="matrix(1 0 0 1.00051 748.228 120.404)"/><path d="M293.868 169.715 293.868 173.36" stroke="#000000" stroke-width="0.809846" stroke-linejoin="round" stroke-miterlimit="10" fill="none" transform="matrix(1 0 0 1.00051 748.228 120.404)"/><path d="M361.754 169.715 361.754 173.36" stroke="#000000" stroke-width="0.809846" stroke-linejoin="round" stroke-miterlimit="10" fill="none" transform="matrix(1 0 0 1.00051 748.228 120.404)"/><path d="M429.868 169.715 429.868 173.36" stroke="#000000" stroke-width="0.809846" stroke-linejoin="round" stroke-miterlimit="10" fill="none" transform="matrix(1 0 0 1.00051 748.228 120.404)"/><path d="M73.3532 130.76 69.7083 130.76" stroke="#000000" stroke-width="0.809846" stroke-linejoin="round" stroke-miterlimit="10" fill="none" transform="matrix(1 0 0 1.00051 748.228 120.404)"/><path d="M48.5224 125.293 54.4454 125.293 54.4454 126.66 49.8893 126.66 49.8893 129.393C50.1171 129.393 50.3449 129.165 50.5727 129.165 50.8005 129.165 51.0283 129.165 51.2561 129.165 52.3951 129.165 53.5341 129.621 54.2176 130.077 54.901 130.76 55.3566 131.671 55.3566 132.81 55.3566 133.949 54.901 134.86 54.2176 135.544 53.3063 136.227 52.3951 136.683 51.0283 136.683 50.5727 136.683 50.1171 136.683 49.6615 136.683 49.2059 136.683 48.7502 136.455 48.0668 136.227L48.0668 134.633C48.5224 134.86 48.978 135.088 49.4337 135.088 49.8893 135.316 50.3449 135.316 51.0283 135.316 51.9395 135.316 52.6229 135.088 53.0785 134.633 53.5341 134.177 53.762 133.494 53.762 132.81 53.762 132.127 53.5341 131.443 53.0785 130.988 52.6229 130.532 51.9395 130.304 51.0283 130.304 50.5727 130.304 50.1171 130.304 49.8893 130.532 49.4337 130.532 48.978 130.76 48.7502 130.988L48.7502 125.293" transform="matrix(1 0 0 1.00051 748.228 120.404)"/><path d="M61.5073 125.065C62.6463 125.065 63.7854 125.52 64.241 126.432 64.9244 127.343 65.1522 128.938 65.1522 130.76 65.1522 132.582 64.9244 133.949 64.241 135.088 63.5576 136.227 62.6463 136.683 61.5073 136.683 60.3683 136.683 59.2293 136.227 58.5459 135.316 57.8624 134.405 57.6346 132.81 57.6346 130.988 57.6346 129.165 57.8624 127.799 58.5459 126.66 59.2293 125.748 60.1405 125.065 61.5073 125.065M61.5073 126.432C60.8239 126.432 60.1405 126.887 59.6849 127.571 59.2293 128.254 59.0015 129.393 59.0015 130.988 59.0015 132.582 59.2293 133.721 59.6849 134.405 60.1405 135.088 60.5961 135.544 61.5073 135.544 62.1907 135.544 62.8741 135.088 63.3298 134.405 63.7854 133.721 64.0132 132.582 64.0132 130.988 64.0132 129.393 63.7854 128.254 63.3298 127.571 62.8741 126.66 62.1907 126.432 61.5073 126.432" transform="matrix(1 0 0 1.00051 748.228 120.404)"/><g><path d="M35.7654 130.988 45.3332 130.988 45.3332 132.355 35.7654 132.355 35.7654 130.988" transform="matrix(1 0 0 1.00051 748.228 120.404)"/></g><path d="M73.3532 86.1102 69.7083 86.1102" stroke="#000000" stroke-width="0.809846" stroke-linejoin="round" stroke-miterlimit="10" fill="none" transform="matrix(1 0 0 1.00051 748.228 120.404)"/><path d="M49.8893 90.4385 55.1288 90.4385 55.1288 91.8054 48.0668 91.8054 48.0668 90.4385C48.5224 89.7551 49.4337 89.0717 50.3449 88.1605 51.2561 87.2493 51.9395 86.5658 52.1673 86.3381 52.6229 85.8824 53.0785 85.4268 53.0785 84.9712 53.3063 84.5156 53.3063 84.2878 53.3063 83.8322 53.3063 83.1488 53.0785 82.6932 52.6229 82.4654 52.1673 82.0098 51.7117 82.0098 51.0283 82.0098 50.5727 82.0098 50.1171 82.0098 49.4337 82.2376 48.978 82.4654 48.2946 82.6932 47.839 82.921L47.839 81.3263C48.5224 81.0985 48.978 80.8707 49.4337 80.8707 49.8893 80.6429 50.3449 80.6429 50.8005 80.6429 51.9395 80.6429 52.8507 80.8707 53.5341 81.5541 54.2176 82.2376 54.6732 82.921 54.6732 83.8322 54.6732 84.2878 54.6732 84.7434 54.4454 85.199 54.2176 85.6546 53.9898 86.1102 53.5341 86.5658 53.3063 86.7937 53.0785 87.0215 52.3951 87.7049 51.9395 88.3883 51.0283 89.2995 49.8893 90.4385" transform="matrix(1 0 0 1.00051 748.228 120.404)"/><path d="M58.3181 80.6429 64.241 80.6429 64.241 82.0098 59.6849 82.0098 59.6849 84.7434C59.9127 84.7434 60.1405 84.5156 60.3683 84.5156 60.5961 84.5156 60.8239 84.5156 61.0517 84.5156 62.1907 84.5156 63.3298 84.9712 64.0132 85.4268 64.6966 86.1102 65.1522 87.0215 65.1522 88.1605 65.1522 89.2995 64.6966 90.2107 64.0132 90.8941 63.3298 91.5776 62.1907 91.8054 60.8239 91.8054 60.3683 91.8054 59.9127 91.8054 59.4571 91.8054 59.0015 91.8054 58.5459 91.5776 57.8624 91.3498L57.8624 89.7551C58.3181 89.9829 58.7737 90.2107 59.2293 90.2107 59.6849 90.4385 60.1405 90.4385 60.8239 90.4385 61.7351 90.4385 62.4185 90.2107 62.8741 89.7551 63.3298 89.2995 63.5576 88.6161 63.5576 87.9327 63.5576 87.2493 63.3298 86.5658 62.8741 86.1102 62.4185 85.6546 61.7351 85.4268 60.8239 85.4268 60.3683 85.4268 59.9127 85.4268 59.6849 85.6546 59.4571 85.8824 58.7737 85.8824 58.5459 86.1102L58.5459 80.6429" transform="matrix(1 0 0 1.00051 748.228 120.404)"/><g><path d="M35.7654 86.3381 45.3332 86.3381 45.3332 87.7049 35.7654 87.7049 35.7654 86.3381" transform="matrix(1 0 0 1.00051 748.228 120.404)"/></g><g><path d="M89.9829 74.4922 98.4117 74.2644 106.84 73.581 115.497 71.7585 123.926 71.3029 132.355 71.0751 141.011 70.3917 149.44 70.1639 157.869 69.4805 166.298 69.2527 174.954 68.5693 183.383 68.7971 191.812 67.8858 200.468 67.6581 212.314 67.2024 215.731 67.2024 219.148 67.2024 222.565 67.2024 229.4 67.6581 232.589 67.6581 236.006 67.6581 239.423 67.6581 246.257 68.1137 251.497 68.5693 259.925 68.5693 268.354 68.7971 276.783 69.9361 285.44 69.9361 293.868 70.6195 302.297 71.7585 310.954 72.2141 319.382 73.3532 327.811 74.9478 336.468 75.859 344.897 76.998 353.325 78.1371 361.754 79.5039 370.411 80.6429 378.84 81.782 387.268 84.5156 395.925 85.8824 404.354 87.4771 412.782 90.2107 421.439 92.0332" stroke="#1F77B4" stroke-width="1.51878" stroke-linecap="square" stroke-linejoin="round" stroke-miterlimit="10" fill="none" transform="matrix(1 0 0 1.00051 748.228 120.404)"/></g><g><path d="M89.9829 80.1873 98.4117 79.5039 106.84 78.8205 115.497 80.6429 123.926 81.5541 132.355 82.0098 141.011 83.1488 149.44 85.4268 157.869 86.7937 166.298 87.7049 174.954 90.6663 183.383 92.261 191.812 95.9058 200.468 99.3229 212.314 110.258 215.731 116.636 219.148 127.799 222.565 164.931 229.4 118.686 232.589 115.041 236.006 111.852 239.423 106.385 246.257 98.4117 251.497 95.678 259.925 93.1722 268.354 89.9829 276.783 87.2493 285.44 86.1102 293.868 84.7434 302.297 82.2376 310.954 79.9595 319.382 78.5927 327.811 77.6815 336.468 76.998 344.897 77.4537 353.325 76.998 361.754 77.2259 370.411 78.5927 378.84 79.0483 387.268 78.1371 395.925 78.1371 404.354 79.7317 412.782 79.9595 421.439 79.7317" stroke="#FF7F0E" stroke-width="1.51878" stroke-linecap="square" stroke-linejoin="round" stroke-miterlimit="10" fill="none" transform="matrix(1 0 0 1.00051 748.228 120.404)"/></g><path d="M73.3532 169.715 73.3532 62.1907" stroke="#000000" stroke-width="0.809846" stroke-linecap="square" stroke-miterlimit="10" fill="none" transform="matrix(1 0 0 1.00051 748.228 120.404)"/><path d="M437.841 169.715 437.841 62.1907" stroke="#000000" stroke-width="0.809846" stroke-linecap="square" stroke-miterlimit="10" fill="none" transform="matrix(1 0 0 1.00051 748.228 120.404)"/><path d="M73.3532 169.715 437.841 169.715" stroke="#000000" stroke-width="0.809846" stroke-linecap="square" stroke-miterlimit="10" fill="none" transform="matrix(1 0 0 1.00051 748.228 120.404)"/><path d="M73.3532 62.1907 437.841 62.1907" stroke="#000000" stroke-width="0.809846" stroke-linecap="square" stroke-miterlimit="10" fill="none" transform="matrix(1 0 0 1.00051 748.228 120.404)"/><path d="M73.3532 169.942 437.841 169.942 437.841 277.466 73.3532 277.466Z" fill="#FFFFFF" transform="matrix(1 0 0 1.00051 748.228 120.404)"/><path d="M89.9829 277.466 89.9829 281.111" stroke="#000000" stroke-width="0.809846" stroke-linejoin="round" stroke-miterlimit="10" fill="none" transform="matrix(1 0 0 1.00051 748.228 120.404)"/><path d="M72.4419 295.007 74.9478 295.007 74.9478 286.579 72.2141 287.034 72.2141 285.667 74.9478 285.212 76.3146 285.212 76.3146 295.007 78.8205 295.007 78.8205 296.146 72.4419 296.146 72.4419 295.007" transform="matrix(1 0 0 1.00051 748.228 120.404)"/><path d="M85.6546 285.212 87.4771 285.212 87.4771 292.501 89.0717 292.501 89.0717 293.64 87.4771 293.64 87.4771 296.146 85.8824 296.146 85.8824 293.64 80.8707 293.64 80.8707 292.274 85.6546 285.212M85.8824 286.351 82.0098 292.274 85.8824 292.274 85.8824 286.351" transform="matrix(1 0 0 1.00051 748.228 120.404)"/><path d="M92.7166 287.945C92.7166 288.629 92.9444 289.084 93.1722 289.312 93.6278 289.54 94.0834 289.768 94.7668 289.768 95.4502 289.768 95.9058 289.54 96.3615 289.312 96.8171 289.084 96.8171 288.629 96.8171 287.945 96.8171 287.262 96.5893 287.034 96.3615 286.579 96.1337 286.123 95.4502 286.123 94.7668 286.123 94.0834 286.123 93.6278 286.351 93.1722 286.579 92.7166 286.806 92.7166 287.262 92.7166 287.945M93.1722 290.223C92.4888 289.996 92.0332 289.768 91.5776 289.312 91.1219 288.857 91.1219 288.401 91.1219 287.718 91.1219 286.806 91.3498 286.123 92.0332 285.667 92.7166 285.212 93.6278 284.984 94.539 284.984 95.678 284.984 96.5893 285.212 97.0449 285.667 97.7283 286.123 97.9561 286.806 97.9561 287.718 97.9561 288.401 97.7283 288.857 97.5005 289.312 97.0449 289.768 96.5893 289.996 95.9058 290.223 96.5893 290.451 97.2727 290.679 97.5005 291.135 97.9561 291.59 98.1839 292.274 98.1839 292.957 98.1839 294.096 97.9561 294.779 97.2727 295.463 96.5893 296.146 95.678 296.374 94.539 296.374 93.4 296.374 92.261 296.146 91.8054 295.463 91.1219 295.007 90.8941 294.096 90.8941 292.957 90.8941 292.274 91.1219 291.59 91.5776 291.135 92.0332 290.679 92.4888 290.451 93.1722 290.223M94.7668 290.907C94.0834 290.907 93.4 291.135 93.1722 291.59 92.7166 292.046 92.4888 292.501 92.4888 293.185 92.4888 293.868 92.7166 294.324 93.1722 294.779 93.6278 295.235 94.0834 295.235 94.7668 295.235 95.4502 295.235 96.1337 295.007 96.3615 294.552 96.8171 294.096 97.0449 293.64 97.0449 292.957 97.0449 292.274 96.8171 291.818 96.3615 291.362 95.9058 291.135 95.4502 290.907 94.7668 290.907" transform="matrix(1 0 0 1.00051 748.228 120.404)"/><path d="M104.335 284.984C105.474 284.984 106.613 285.44 107.068 286.351 107.752 287.262 107.98 288.857 107.98 290.679 107.98 292.501 107.752 293.868 107.068 295.007 106.385 295.919 105.474 296.374 104.335 296.374 103.196 296.374 102.057 295.919 101.373 295.007 100.69 294.096 100.462 292.501 100.462 290.679 100.462 288.857 100.69 287.49 101.373 286.351 102.284 285.44 103.196 284.984 104.335 284.984M104.335 286.123C103.651 286.123 102.968 286.579 102.512 287.262 102.057 287.945 101.829 289.084 101.829 290.679 101.829 292.274 102.057 293.413 102.512 294.096 102.968 294.779 103.423 295.235 104.335 295.235 105.018 295.235 105.701 294.779 106.157 294.096 106.613 293.413 106.84 292.274 106.84 290.679 106.84 289.084 106.613 287.945 106.157 287.262 105.701 286.579 105.246 286.123 104.335 286.123" transform="matrix(1 0 0 1.00051 748.228 120.404)"/><path d="M157.869 277.466 157.869 281.111" stroke="#000000" stroke-width="0.809846" stroke-linejoin="round" stroke-miterlimit="10" fill="none" transform="matrix(1 0 0 1.00051 748.228 120.404)"/><path d="M140.556 295.007 142.834 295.007 142.834 286.579 140.328 287.034 140.328 285.667 142.834 285.212 144.428 285.212 144.428 295.007 146.934 295.007 146.934 296.146 140.556 296.146 140.556 295.007" transform="matrix(1 0 0 1.00051 748.228 120.404)"/><path d="M149.896 285.212 155.819 285.212 155.819 286.579 151.262 286.579 151.262 289.312C151.49 289.312 151.718 289.084 151.946 289.084 152.174 289.084 152.401 289.084 152.629 289.084 153.768 289.084 154.907 289.54 155.591 289.996 156.274 290.679 156.73 291.59 156.73 292.729 156.73 293.868 156.274 294.779 155.591 295.463 154.907 296.146 153.768 296.374 152.401 296.374 151.946 296.374 151.49 296.374 151.035 296.374 150.579 296.374 150.123 296.146 149.44 295.919L149.44 294.324C149.896 294.552 150.351 294.779 150.807 294.779 151.262 295.007 151.718 295.007 152.401 295.007 153.313 295.007 153.996 294.779 154.452 294.324 154.907 293.868 155.135 293.185 155.135 292.501 155.135 291.818 154.907 291.135 154.452 290.679 153.996 290.223 153.313 289.996 152.401 289.996 151.946 289.996 151.49 289.996 151.262 290.223 150.807 290.223 150.351 290.451 150.123 290.679L150.123 285.212" transform="matrix(1 0 0 1.00051 748.228 120.404)"/><path d="M162.653 284.984C163.792 284.984 164.931 285.44 165.386 286.351 166.07 287.262 166.298 288.857 166.298 290.679 166.298 292.501 166.07 293.868 165.386 295.007 164.703 295.919 163.792 296.374 162.653 296.374 161.514 296.374 160.375 295.919 159.691 295.007 159.008 294.096 158.78 292.501 158.78 290.679 158.78 288.857 159.008 287.49 159.691 286.351 160.602 285.44 161.514 284.984 162.653 284.984M162.653 286.123C161.969 286.123 161.286 286.579 160.83 287.262 160.375 287.945 160.147 289.084 160.147 290.679 160.147 292.274 160.375 293.413 160.83 294.096 161.286 294.779 161.741 295.235 162.653 295.235 163.336 295.235 164.02 294.779 164.475 294.096 164.931 293.413 165.159 292.274 165.159 290.679 165.159 289.084 164.931 287.945 164.475 287.262 164.02 286.579 163.564 286.123 162.653 286.123" transform="matrix(1 0 0 1.00051 748.228 120.404)"/><path d="M172.448 284.984C173.587 284.984 174.726 285.44 175.182 286.351 175.865 287.262 176.093 288.857 176.093 290.679 176.093 292.501 175.865 293.868 175.182 295.007 174.499 295.919 173.587 296.374 172.448 296.374 171.309 296.374 170.17 295.919 169.487 295.007 168.803 294.096 168.576 292.501 168.576 290.679 168.576 288.857 168.803 287.49 169.487 286.351 170.17 285.44 171.081 284.984 172.448 284.984M172.448 286.123C171.765 286.123 171.081 286.579 170.626 287.262 170.17 287.945 169.942 289.084 169.942 290.679 169.942 292.274 170.17 293.413 170.626 294.096 171.081 294.779 171.537 295.235 172.448 295.235 173.132 295.235 173.815 294.779 174.271 294.096 174.726 293.413 174.954 292.274 174.954 290.679 174.954 289.084 174.726 287.945 174.271 287.262 173.815 286.579 173.132 286.123 172.448 286.123" transform="matrix(1 0 0 1.00051 748.228 120.404)"/><path d="M225.982 277.466 225.982 281.111" stroke="#000000" stroke-width="0.809846" stroke-linejoin="round" stroke-miterlimit="10" fill="none" transform="matrix(1 0 0 1.00051 748.228 120.404)"/><path d="M208.441 295.007 210.947 295.007 210.947 286.579 208.214 287.034 208.214 285.667 210.947 285.212 212.314 285.212 212.314 295.007 214.82 295.007 214.82 296.146 208.441 296.146 208.441 295.007" transform="matrix(1 0 0 1.00051 748.228 120.404)"/><path d="M217.781 285.212 223.704 285.212 223.704 286.579 219.148 286.579 219.148 289.312C219.376 289.312 219.604 289.084 219.832 289.084 220.06 289.084 220.287 289.084 220.515 289.084 221.654 289.084 222.793 289.54 223.477 289.996 224.16 290.679 224.616 291.59 224.616 292.729 224.616 293.868 224.16 294.779 223.477 295.463 222.793 296.146 221.654 296.374 220.287 296.374 219.832 296.374 219.376 296.374 218.92 296.374 218.465 296.374 218.009 296.146 217.326 295.919L217.326 294.324C217.781 294.552 218.237 294.779 218.693 294.779 219.148 295.007 219.604 295.007 220.287 295.007 221.199 295.007 221.882 294.779 222.338 294.324 222.793 293.868 223.021 293.185 223.021 292.501 223.021 291.818 222.793 291.135 222.338 290.679 221.882 290.223 221.199 289.996 220.287 289.996 219.832 289.996 219.376 289.996 219.148 290.223 218.693 290.223 218.237 290.451 218.009 290.679L218.009 285.212" transform="matrix(1 0 0 1.00051 748.228 120.404)"/><path d="M228.716 295.007 233.956 295.007 233.956 296.374 226.894 296.374 226.894 295.007C227.349 294.324 228.26 293.64 229.172 292.729 230.083 291.818 230.766 291.135 230.994 290.907 231.45 290.451 231.905 289.996 231.905 289.54 232.133 289.084 232.133 288.857 232.133 288.401 232.133 287.718 231.905 287.262 231.45 287.034 230.994 286.579 230.539 286.579 229.855 286.579 229.4 286.579 228.944 286.579 228.26 286.806 227.805 287.034 227.121 287.262 226.666 287.49L226.666 285.895C227.349 285.667 227.805 285.44 228.26 285.44 228.716 285.212 229.172 285.212 229.627 285.212 230.766 285.212 231.678 285.44 232.361 286.123 233.044 286.806 233.5 287.49 233.5 288.401 233.5 288.857 233.5 289.312 233.272 289.768 233.044 290.223 232.817 290.679 232.361 291.135 232.133 291.362 231.905 291.59 231.222 292.274 230.994 292.729 230.083 293.64 228.716 295.007" transform="matrix(1 0 0 1.00051 748.228 120.404)"/><path d="M240.334 284.984C241.473 284.984 242.612 285.44 243.068 286.351 243.751 287.262 243.979 288.857 243.979 290.679 243.979 292.501 243.751 293.868 243.068 295.007 242.384 295.919 241.473 296.374 240.334 296.374 239.195 296.374 238.056 295.919 237.373 295.007 236.689 294.096 236.461 292.501 236.461 290.679 236.461 288.857 236.689 287.49 237.373 286.351 238.056 285.44 239.195 284.984 240.334 284.984M240.334 286.123C239.651 286.123 238.967 286.579 238.512 287.262 238.056 287.945 237.828 289.084 237.828 290.679 237.828 292.274 238.056 293.413 238.512 294.096 238.967 294.779 239.423 295.235 240.334 295.235 241.018 295.235 241.701 294.779 242.157 294.096 242.612 293.413 242.84 292.274 242.84 290.679 242.84 289.084 242.612 287.945 242.157 287.262 241.701 286.579 241.245 286.123 240.334 286.123" transform="matrix(1 0 0 1.00051 748.228 120.404)"/><path d="M293.868 277.466 293.868 281.111" stroke="#000000" stroke-width="0.809846" stroke-linejoin="round" stroke-miterlimit="10" fill="none" transform="matrix(1 0 0 1.00051 748.228 120.404)"/><path d="M276.327 295.007 278.833 295.007 278.833 286.579 276.327 287.034 276.327 285.667 278.833 285.212 280.428 285.212 280.428 295.007 282.706 295.007 282.706 296.146 276.327 296.146 276.327 295.007" transform="matrix(1 0 0 1.00051 748.228 120.404)"/><path d="M285.895 285.212 291.818 285.212 291.818 286.579 287.262 286.579 287.262 289.312C287.49 289.312 287.718 289.084 287.945 289.084 288.173 289.084 288.401 289.084 288.629 289.084 289.768 289.084 290.907 289.54 291.59 289.996 292.274 290.679 292.729 291.59 292.729 292.729 292.729 293.868 292.274 294.779 291.59 295.463 290.907 296.146 289.768 296.374 288.401 296.374 287.945 296.374 287.49 296.374 287.034 296.374 286.579 296.374 286.123 296.146 285.44 295.919L285.44 294.324C285.895 294.552 286.351 294.779 286.806 294.779 287.262 295.007 287.718 295.007 288.401 295.007 289.312 295.007 289.996 294.779 290.451 294.324 290.907 293.868 291.135 293.185 291.135 292.501 291.135 291.818 290.907 291.135 290.451 290.679 289.996 290.223 289.312 289.996 288.401 289.996 287.945 289.996 287.49 289.996 287.262 290.223 286.806 290.223 286.351 290.451 286.123 290.679L286.123 285.212" transform="matrix(1 0 0 1.00051 748.228 120.404)"/><path d="M299.108 285.212 300.93 285.212 300.93 292.501 302.525 292.501 302.525 293.64 300.93 293.64 300.93 296.146 299.336 296.146 299.336 293.64 294.324 293.64 294.324 292.274 299.108 285.212M299.563 286.351 295.691 292.274 299.563 292.274 299.563 286.351" transform="matrix(1 0 0 1.00051 748.228 120.404)"/><path d="M308.448 284.984C309.587 284.984 310.726 285.44 311.181 286.351 311.865 287.262 312.093 288.857 312.093 290.679 312.093 292.501 311.865 293.868 311.181 295.007 310.498 295.919 309.587 296.374 308.448 296.374 307.309 296.374 306.17 295.919 305.486 295.007 304.803 294.096 304.575 292.501 304.575 290.679 304.575 288.857 304.803 287.49 305.486 286.351 306.17 285.44 307.081 284.984 308.448 284.984M308.448 286.123C307.764 286.123 307.081 286.579 306.625 287.262 306.17 287.945 305.942 289.084 305.942 290.679 305.942 292.274 306.17 293.413 306.625 294.096 307.081 294.779 307.537 295.235 308.448 295.235 309.131 295.235 309.815 294.779 310.27 294.096 310.726 293.413 310.954 292.274 310.954 290.679 310.954 289.084 310.726 287.945 310.27 287.262 309.815 286.579 309.131 286.123 308.448 286.123" transform="matrix(1 0 0 1.00051 748.228 120.404)"/><path d="M361.754 277.466 361.754 281.111" stroke="#000000" stroke-width="0.809846" stroke-linejoin="round" stroke-miterlimit="10" fill="none" transform="matrix(1 0 0 1.00051 748.228 120.404)"/><path d="M344.441 295.007 346.947 295.007 346.947 286.579 344.213 287.034 344.213 285.667 346.947 285.212 348.314 285.212 348.314 295.007 350.82 295.007 350.82 296.146 344.441 296.146 344.441 295.007" transform="matrix(1 0 0 1.00051 748.228 120.404)"/><path d="M353.781 285.212 359.704 285.212 359.704 286.579 355.148 286.579 355.148 289.312C355.376 289.312 355.603 289.084 355.831 289.084 356.059 289.084 356.287 289.084 356.515 289.084 357.654 289.084 358.793 289.54 359.476 289.996 360.16 290.679 360.615 291.59 360.615 292.729 360.615 293.868 360.16 294.779 359.476 295.463 358.793 296.146 357.654 296.374 356.287 296.374 355.831 296.374 355.376 296.374 354.92 296.374 354.464 296.374 354.009 296.146 353.325 295.919L353.325 294.324C353.781 294.552 354.237 294.779 354.692 294.779 355.148 295.007 355.603 295.007 356.287 295.007 357.198 295.007 357.881 294.779 358.337 294.324 358.793 293.868 359.021 293.185 359.021 292.501 359.021 291.818 358.793 291.135 358.337 290.679 357.881 290.223 357.198 289.996 356.287 289.996 355.831 289.996 355.376 289.996 355.148 290.223 354.92 290.451 354.237 290.451 354.009 290.679L354.009 285.212" transform="matrix(1 0 0 1.00051 748.228 120.404)"/><path d="M369.727 285.44 369.727 286.806C369.272 286.579 369.044 286.579 368.588 286.351 368.133 286.351 367.905 286.123 367.449 286.123 366.538 286.123 365.627 286.351 365.171 287.034 364.716 287.718 364.26 288.629 364.26 289.996 364.488 289.54 364.943 289.312 365.399 289.084 365.855 288.857 366.31 288.629 366.766 288.629 367.905 288.629 368.816 289.084 369.5 289.54 370.183 289.996 370.411 291.135 370.411 292.274 370.411 293.413 369.955 294.324 369.5 295.007 368.816 295.691 367.905 295.919 366.766 295.919 365.399 295.919 364.488 295.463 363.804 294.552 363.121 293.64 362.893 292.046 362.893 290.223 362.893 288.401 363.349 287.034 364.032 286.123 364.943 284.984 366.082 284.528 367.449 284.528 367.905 284.528 368.133 284.528 368.588 284.528 369.044 284.984 369.5 285.212 369.727 285.44M366.766 289.996C366.082 289.996 365.627 290.223 365.171 290.679 364.716 291.135 364.488 291.818 364.488 292.501 364.488 293.413 364.716 293.868 365.171 294.324 365.627 294.779 366.082 295.007 366.766 295.007 367.449 295.007 367.905 294.779 368.36 294.324 368.816 293.868 369.044 293.185 369.044 292.501 369.044 291.818 368.816 291.135 368.36 290.679 368.133 290.223 367.449 289.996 366.766 289.996" transform="matrix(1 0 0 1.00051 748.228 120.404)"/><path d="M376.334 284.984C377.473 284.984 378.612 285.44 379.067 286.351 379.751 287.262 379.979 288.857 379.979 290.679 379.979 292.501 379.751 293.868 379.067 295.007 378.384 295.919 377.473 296.374 376.334 296.374 375.195 296.374 374.056 295.919 373.372 295.007 372.689 294.096 372.461 292.501 372.461 290.679 372.461 288.857 372.689 287.49 373.372 286.351 374.056 285.44 375.195 284.984 376.334 284.984M376.334 286.123C375.65 286.123 374.967 286.579 374.511 287.262 374.056 287.945 373.828 289.084 373.828 290.679 373.828 292.274 374.056 293.413 374.511 294.096 374.967 294.779 375.422 295.235 376.334 295.235 377.245 295.235 377.701 294.779 378.156 294.096 378.612 293.413 378.84 292.274 378.84 290.679 378.84 289.084 378.612 287.945 378.156 287.262 377.701 286.579 377.017 286.123 376.334 286.123" transform="matrix(1 0 0 1.00051 748.228 120.404)"/><path d="M429.868 277.466 429.868 281.111" stroke="#000000" stroke-width="0.809846" stroke-linejoin="round" stroke-miterlimit="10" fill="none" transform="matrix(1 0 0 1.00051 748.228 120.404)"/><path d="M412.327 295.007 414.833 295.007 414.833 286.579 412.099 287.034 412.099 285.667 414.833 285.212 416.427 285.212 416.427 295.007 418.705 295.007 418.705 296.146 412.327 296.146 412.327 295.007" transform="matrix(1 0 0 1.00051 748.228 120.404)"/><path d="M421.895 285.212 427.818 285.212 427.818 286.579 423.261 286.579 423.261 289.312C423.489 289.312 423.717 289.084 423.945 289.084 424.173 289.084 424.4 289.084 424.628 289.084 425.767 289.084 426.906 289.54 427.59 289.996 428.273 290.679 428.729 291.59 428.729 292.729 428.729 293.868 428.273 294.779 427.59 295.463 426.906 296.146 425.767 296.374 424.4 296.374 423.945 296.374 423.489 296.374 423.034 296.374 422.578 296.374 422.122 296.146 421.439 295.919L421.439 294.324C421.895 294.552 422.35 294.779 422.806 294.779 423.261 295.007 423.717 295.007 424.4 295.007 425.312 295.007 425.995 294.779 426.451 294.324 426.906 293.868 427.134 293.185 427.134 292.501 427.134 291.818 426.906 291.135 426.451 290.679 425.995 290.223 425.312 289.996 424.4 289.996 423.945 289.996 423.489 289.996 423.261 290.223 422.806 290.223 422.35 290.451 422.122 290.679L422.122 285.212" transform="matrix(1 0 0 1.00051 748.228 120.404)"/><path d="M432.601 287.945C432.601 288.629 432.829 289.084 433.057 289.312 433.513 289.54 433.968 289.768 434.652 289.768 435.335 289.768 435.791 289.54 436.246 289.312 436.702 289.084 436.702 288.629 436.702 287.945 436.702 287.262 436.474 287.034 436.246 286.579 435.791 286.351 435.335 286.123 434.652 286.123 433.968 286.123 433.513 286.351 433.057 286.579 432.829 286.806 432.601 287.262 432.601 287.945M433.057 290.223C432.374 289.996 431.918 289.768 431.462 289.312 431.007 288.857 431.007 288.401 431.007 287.718 431.007 286.806 431.235 286.123 431.918 285.667 432.601 285.212 433.513 284.984 434.424 284.984 435.563 284.984 436.474 285.212 436.93 285.667 437.613 286.123 437.841 286.806 437.841 287.718 437.841 288.401 437.613 288.857 437.385 289.312 436.93 289.768 436.474 289.996 435.791 290.223 436.474 290.451 437.158 290.679 437.385 291.135 437.841 291.59 438.069 292.274 438.069 292.957 438.069 294.096 437.841 294.779 437.158 295.463 436.474 296.146 435.563 296.374 434.424 296.374 433.285 296.374 432.146 296.146 431.69 295.463 431.007 295.007 430.779 294.096 430.779 292.957 430.779 292.274 431.007 291.59 431.462 291.135 431.918 290.679 432.374 290.451 433.057 290.223M434.652 290.907C433.968 290.907 433.285 291.135 433.057 291.59 432.601 292.046 432.374 292.501 432.374 293.185 432.374 293.868 432.601 294.324 433.057 294.779 433.513 295.235 433.968 295.235 434.652 295.235 435.335 295.235 436.019 295.007 436.246 294.552 436.702 294.096 436.93 293.64 436.93 292.957 436.93 292.274 436.702 291.818 436.246 291.362 436.019 291.135 435.335 290.907 434.652 290.907" transform="matrix(1 0 0 1.00051 748.228 120.404)"/><path d="M444.22 284.984C445.359 284.984 446.498 285.44 446.953 286.351 447.637 287.262 447.864 288.857 447.864 290.679 447.864 292.501 447.637 293.868 446.953 295.007 446.27 295.919 445.359 296.374 444.22 296.374 443.08 296.374 441.941 295.919 441.258 295.007 440.575 294.096 440.347 292.501 440.347 290.679 440.347 288.857 440.575 287.49 441.258 286.351 442.169 285.44 443.08 284.984 444.22 284.984M444.22 286.123C443.536 286.123 442.853 286.579 442.397 287.262 441.941 287.945 441.714 289.084 441.714 290.679 441.714 292.274 441.941 293.413 442.397 294.096 442.853 294.779 443.308 295.235 444.22 295.235 444.903 295.235 445.586 294.779 446.042 294.096 446.498 293.413 446.725 292.274 446.725 290.679 446.725 289.084 446.498 287.945 446.042 287.262 445.586 286.579 445.131 286.123 444.22 286.123" transform="matrix(1 0 0 1.00051 748.228 120.404)"/><path d="M189.989 303.892 191.584 303.892 193.862 313.232 196.14 303.892 197.962 303.892 200.24 313.232 202.519 303.892 204.113 303.892 201.38 314.826 199.329 314.826 197.051 305.259 194.773 314.826 192.723 314.826 189.989 303.892" transform="matrix(1 0 0 1.00051 748.228 120.404)"/><path d="M212.542 310.27 212.542 315.054 211.175 315.054 211.175 313.687C210.947 314.143 210.492 314.599 210.036 314.826 209.58 315.054 208.897 315.282 208.441 315.282 207.53 315.282 206.847 315.054 206.391 314.599 205.936 314.143 205.708 313.46 205.708 312.776 205.708 311.865 205.936 311.181 206.619 310.726 207.302 310.27 208.214 310.042 209.353 310.042L211.175 310.042 211.175 309.815C211.175 309.131 210.947 308.676 210.492 308.448 210.036 308.22 209.58 307.992 208.669 307.992 208.214 307.992 207.758 307.992 207.302 308.22 206.847 308.448 206.391 308.448 205.936 308.676L205.936 307.309C206.391 307.081 206.847 307.081 207.302 306.853 207.758 306.853 208.214 306.625 208.669 306.625 209.808 306.625 210.72 306.853 211.403 307.537 212.086 307.992 212.542 308.903 212.542 310.27M209.808 310.726C208.669 310.726 207.986 310.954 207.53 311.181 207.075 311.409 206.847 311.865 206.847 312.548 206.847 313.004 207.075 313.46 207.302 313.687 207.53 313.915 207.986 314.143 208.669 314.143 209.353 314.143 210.036 313.915 210.492 313.232 210.947 312.776 211.175 312.093 211.175 311.181L211.175 310.954 209.808 310.954" transform="matrix(1 0 0 1.00051 748.228 120.404)"/><path d="M214.364 306.625 215.731 306.625 218.465 313.687 220.971 306.625 222.338 306.625 219.376 314.826 217.554 314.826 214.364 306.625" transform="matrix(1 0 0 1.00051 748.228 120.404)"/><path d="M230.083 310.042C230.083 309.359 229.855 308.676 229.4 308.22 228.944 307.764 228.488 307.537 227.805 307.537 227.121 307.537 226.438 307.764 225.982 308.22 225.527 308.676 225.299 309.359 225.299 310.042L230.083 310.042M231.45 310.498 231.45 311.181 225.071 311.181C225.071 312.093 225.299 312.776 225.982 313.232 226.438 313.687 227.121 313.915 228.033 313.915 228.488 313.915 229.172 313.915 229.627 313.687 230.083 313.46 230.539 313.46 230.994 313.004L230.994 314.371C230.539 314.599 230.083 314.826 229.4 314.826 228.944 314.826 228.26 315.054 227.805 315.054 226.438 315.054 225.527 314.599 224.616 313.915 223.932 313.232 223.477 312.093 223.477 310.726 223.477 309.359 223.932 308.22 224.616 307.537 225.299 306.853 226.438 306.398 227.577 306.398 228.716 306.398 229.627 306.853 230.311 307.537 230.994 308.22 231.45 309.131 231.45 310.498" transform="matrix(1 0 0 1.00051 748.228 120.404)"/><path d="M233.728 303.436 235.095 303.436 235.095 314.826 233.728 314.826 233.728 303.436" transform="matrix(1 0 0 1.00051 748.228 120.404)"/><path d="M243.523 310.042C243.523 309.359 243.296 308.676 242.84 308.22 242.384 307.764 241.929 307.537 241.245 307.537 240.562 307.537 239.879 307.764 239.423 308.22 238.967 308.676 238.74 309.359 238.74 310.042L243.523 310.042M244.89 310.498 244.89 311.181 238.512 311.181C238.512 312.093 238.74 312.776 239.423 313.232 239.879 313.687 240.562 313.915 241.473 313.915 241.929 313.915 242.612 313.915 243.068 313.687 243.523 313.46 243.979 313.46 244.435 313.004L244.435 314.371C243.979 314.599 243.523 314.826 242.84 314.826 242.384 314.826 241.701 315.054 241.245 315.054 239.879 315.054 238.967 314.599 238.056 313.915 237.373 313.232 236.917 312.093 236.917 310.726 236.917 309.359 237.373 308.22 238.056 307.537 238.74 306.853 239.879 306.398 241.018 306.398 242.157 306.398 243.068 306.853 243.751 307.537 244.662 308.22 244.89 309.131 244.89 310.498" transform="matrix(1 0 0 1.00051 748.228 120.404)"/><path d="M254.002 309.815 254.002 314.826 252.636 314.826 252.636 309.815C252.636 309.131 252.408 308.448 252.18 307.992 251.952 307.537 251.497 307.309 250.813 307.309 250.13 307.309 249.446 307.537 248.991 307.992 248.535 308.448 248.307 309.131 248.307 309.815L248.307 314.599 246.94 314.599 246.94 306.398 248.307 306.398 248.307 307.764C248.535 307.309 248.991 306.853 249.446 306.625 249.902 306.398 250.358 306.17 251.041 306.17 251.952 306.17 252.636 306.398 253.091 307.081 253.775 307.992 254.002 308.676 254.002 309.815" transform="matrix(1 0 0 1.00051 748.228 120.404)"/><path d="M263.57 313.915C263.57 315.282 263.342 316.421 262.659 317.104 261.976 317.788 261.064 318.243 259.698 318.243 259.242 318.243 258.786 318.243 258.331 318.243 257.875 318.243 257.419 318.016 257.192 318.016L257.192 316.649C257.647 316.877 257.875 317.104 258.331 317.104 258.786 317.104 259.014 317.332 259.47 317.332 260.381 317.332 261.064 317.104 261.52 316.649 261.976 316.193 262.203 315.51 262.203 314.599L262.203 313.915C261.976 314.371 261.52 314.826 261.064 315.054 260.609 315.282 260.153 315.51 259.47 315.51 258.331 315.51 257.647 315.054 256.964 314.371 256.28 313.687 256.053 312.548 256.053 311.181 256.053 309.815 256.28 308.903 256.964 307.992 257.647 307.309 258.331 306.853 259.47 306.853 260.153 306.853 260.609 307.081 261.064 307.309 261.52 307.537 261.976 307.992 262.203 308.448L262.203 307.081 263.57 307.081 263.57 313.915M262.203 310.726C262.203 309.815 261.976 308.903 261.52 308.448 261.064 307.992 260.609 307.537 259.698 307.537 259.014 307.537 258.331 307.764 257.875 308.448 257.419 308.903 257.192 309.815 257.192 310.726 257.192 311.637 257.419 312.548 257.875 313.004 258.331 313.46 258.786 313.915 259.698 313.915 260.381 313.915 261.064 313.687 261.52 313.004 261.976 312.32 262.203 311.637 262.203 310.726" transform="matrix(1 0 0 1.00051 748.228 120.404)"/><path d="M267.899 304.347 267.899 306.625 270.632 306.625 270.632 307.764 267.899 307.764 267.899 312.32C267.899 313.004 267.899 313.46 268.126 313.687 268.354 313.915 268.582 313.915 269.265 313.915L270.632 313.915 270.632 315.054 269.265 315.054C268.126 315.054 267.443 314.826 266.987 314.371 266.532 313.915 266.304 313.232 266.304 312.32L266.304 307.764 265.393 307.764 265.393 306.625 266.304 306.625 266.304 304.347 267.899 304.347" transform="matrix(1 0 0 1.00051 748.228 120.404)"/><path d="M279.289 309.815 279.289 314.826 277.922 314.826 277.922 309.815C277.922 309.131 277.694 308.448 277.466 307.992 277.239 307.537 276.783 307.309 276.099 307.309 275.416 307.309 274.733 307.537 274.277 307.992 273.821 308.448 273.594 309.131 273.594 309.815L273.594 314.599 272.227 314.599 272.227 302.98 273.594 302.98 273.594 307.537C273.821 307.081 274.277 306.625 274.733 306.398 275.188 306.17 275.644 305.942 276.327 305.942 277.239 305.942 277.922 306.17 278.378 306.853 279.061 307.992 279.289 308.676 279.289 309.815" transform="matrix(1 0 0 1.00051 748.228 120.404)"/><path d="M290.223 303.436C289.54 304.575 289.084 305.714 288.857 306.853 288.629 307.992 288.401 309.131 288.401 310.27 288.401 311.409 288.629 312.548 288.857 313.687 289.084 314.826 289.768 315.965 290.223 317.104L289.084 317.104C288.401 315.965 287.718 314.826 287.49 313.687 287.034 312.548 287.034 311.409 287.034 310.27 287.034 309.131 287.262 307.992 287.49 306.853 287.945 305.714 288.401 304.575 289.084 303.436L290.223 303.436" transform="matrix(1 0 0 1.00051 748.228 120.404)"/><path d="M299.791 309.815 299.791 314.826 298.424 314.826 298.424 309.815C298.424 309.131 298.197 308.448 297.969 307.992 297.741 307.537 297.285 307.309 296.602 307.309 295.919 307.309 295.235 307.537 294.779 307.992 294.324 308.448 294.096 309.131 294.096 309.815L294.096 314.599 292.729 314.599 292.729 306.398 294.096 306.398 294.096 307.764C294.324 307.309 294.779 306.853 295.235 306.625 295.691 306.398 296.146 306.17 296.83 306.17 297.741 306.17 298.424 306.398 298.88 307.081 299.563 307.992 299.791 308.676 299.791 309.815" transform="matrix(1 0 0 1.00051 748.228 120.404)"/><path d="M308.903 308.22C309.131 307.537 309.587 307.081 310.042 306.853 310.498 306.625 311.181 306.398 311.637 306.398 312.548 306.398 313.232 306.625 313.687 307.309 314.143 307.992 314.371 308.676 314.371 309.815L314.371 314.826 313.004 314.826 313.004 309.815C313.004 309.131 312.776 308.448 312.548 307.992 312.32 307.537 311.865 307.309 311.181 307.309 310.498 307.309 309.815 307.537 309.587 307.992 309.131 308.448 308.903 309.131 308.903 309.815L308.903 314.599 307.537 314.599 307.537 309.587C307.537 308.903 307.309 308.22 307.081 307.764 306.853 307.309 306.398 307.081 305.714 307.081 305.031 307.081 304.347 307.309 304.12 307.764 303.892 308.22 303.436 308.903 303.436 309.587L303.436 314.371 302.069 314.371 302.069 306.17 303.436 306.17 303.436 307.537C303.664 307.081 304.12 306.625 304.575 306.398 305.031 306.17 305.486 305.942 306.17 305.942 306.853 305.942 307.309 306.17 307.764 306.398 308.448 307.081 308.676 307.537 308.903 308.22" transform="matrix(1 0 0 1.00051 748.228 120.404)"/><path d="M317.104 303.436 318.243 303.436C318.927 304.575 319.61 305.714 319.838 306.853 320.294 307.992 320.294 309.131 320.294 310.27 320.294 311.409 320.066 312.548 319.838 313.687 319.382 314.826 318.927 315.965 318.243 317.104L317.104 317.104C317.788 315.965 318.243 314.826 318.471 313.687 318.699 312.548 318.927 311.409 318.927 310.27 318.927 309.131 318.699 307.992 318.471 306.853 318.243 305.714 317.56 304.575 317.104 303.436" transform="matrix(1 0 0 1.00051 748.228 120.404)"/><path d="M73.3532 238.512 69.7083 238.512" stroke="#000000" stroke-width="0.809846" stroke-linejoin="round" stroke-miterlimit="10" fill="none" transform="matrix(1 0 0 1.00051 748.228 120.404)"/><path d="M48.5224 233.044 54.4454 233.044 54.4454 234.411 49.8893 234.411 49.8893 237.145C50.1171 237.145 50.3449 236.917 50.5727 236.917 50.8005 236.917 51.0283 236.917 51.2561 236.917 52.3951 236.917 53.5341 237.373 54.2176 237.828 54.901 238.512 55.3566 239.423 55.3566 240.562 55.3566 241.701 54.901 242.612 54.2176 243.296 53.5341 243.979 52.3951 244.207 51.0283 244.207 50.5727 244.207 50.1171 244.207 49.6615 244.207 49.2059 244.207 48.7502 243.979 48.0668 243.751L48.0668 242.157C48.5224 242.384 48.978 242.612 49.4337 242.612 49.8893 242.84 50.3449 242.84 51.0283 242.84 51.9395 242.84 52.6229 242.612 53.0785 242.157 53.5341 241.701 53.762 241.018 53.762 240.334 53.762 239.651 53.5341 238.967 53.0785 238.512 52.6229 238.056 51.9395 237.828 51.0283 237.828 50.5727 237.828 50.1171 237.828 49.8893 238.056 49.4337 238.056 48.978 238.284 48.7502 238.512L48.7502 233.044" transform="matrix(1 0 0 1.00051 748.228 120.404)"/><path d="M61.5073 233.044C62.6463 233.044 63.7854 233.5 64.241 234.411 64.9244 235.322 65.1522 236.917 65.1522 238.74 65.1522 240.562 64.9244 241.929 64.241 243.068 63.5576 243.979 62.6463 244.435 61.5073 244.435 60.3683 244.435 59.2293 243.979 58.5459 243.068 57.8624 242.157 57.6346 240.562 57.6346 238.74 57.6346 236.917 57.8624 235.55 58.5459 234.411 59.2293 233.5 60.1405 233.044 61.5073 233.044M61.5073 234.183C60.8239 234.183 60.1405 234.639 59.6849 235.322 59.2293 236.006 59.0015 237.145 59.0015 238.74 59.0015 240.334 59.2293 241.473 59.6849 242.157 60.1405 242.84 60.5961 243.296 61.5073 243.296 62.1907 243.296 62.8741 242.84 63.3298 242.157 63.7854 241.473 64.0132 240.334 64.0132 238.74 64.0132 237.145 63.7854 236.006 63.3298 235.322 62.8741 234.411 62.1907 234.183 61.5073 234.183" transform="matrix(1 0 0 1.00051 748.228 120.404)"/><g><path d="M35.7654 238.74 45.3332 238.74 45.3332 240.106 35.7654 240.106 35.7654 238.74" transform="matrix(1 0 0 1.00051 748.228 120.404)"/></g><path d="M73.3532 193.862 69.7083 193.862" stroke="#000000" stroke-width="0.809846" stroke-linejoin="round" stroke-miterlimit="10" fill="none" transform="matrix(1 0 0 1.00051 748.228 120.404)"/><path d="M49.8893 198.418 55.1288 198.418 55.1288 199.785 48.0668 199.785 48.0668 198.418C48.5224 197.735 49.4337 197.051 50.3449 196.14 51.2561 195.229 51.9395 194.545 52.1673 194.318 52.6229 193.862 53.0785 193.406 53.0785 192.951 53.3063 192.495 53.3063 192.267 53.3063 191.812 53.3063 191.128 53.0785 190.673 52.6229 190.445 52.1673 190.217 51.7117 189.989 51.0283 189.989 50.5727 189.989 50.1171 189.989 49.4337 190.217 48.978 190.445 48.2946 190.673 47.839 190.9L47.839 189.078C48.5224 188.85 48.978 188.622 49.4337 188.622 49.8893 188.395 50.3449 188.395 50.8005 188.395 51.9395 188.395 52.8507 188.622 53.5341 189.306 54.2176 189.989 54.6732 190.673 54.6732 191.584 54.6732 192.04 54.6732 192.495 54.4454 192.951 54.2176 193.406 53.9898 193.862 53.5341 194.318 53.3063 194.545 53.0785 194.773 52.3951 195.457 51.9395 196.14 51.0283 197.051 49.8893 198.418" transform="matrix(1 0 0 1.00051 748.228 120.404)"/><path d="M58.3181 188.622 64.241 188.622 64.241 189.989 59.6849 189.989 59.6849 192.723C59.9127 192.723 60.1405 192.495 60.3683 192.495 60.5961 192.495 60.8239 192.495 61.0517 192.495 62.1907 192.495 63.3298 192.951 64.0132 193.406 64.6966 194.09 65.1522 195.001 65.1522 196.14 65.1522 197.279 64.6966 198.19 64.0132 198.874 63.3298 199.557 62.1907 199.785 60.8239 199.785 60.3683 199.785 59.9127 199.785 59.4571 199.785 59.0015 199.785 58.5459 199.557 57.8624 199.329L57.8624 197.735C58.3181 197.962 58.7737 198.19 59.2293 198.19 59.6849 198.418 60.1405 198.418 60.8239 198.418 61.7351 198.418 62.4185 198.19 62.8741 197.735 63.3298 197.279 63.5576 196.596 63.5576 195.912 63.5576 195.229 63.3298 194.545 62.8741 194.09 62.1907 193.862 61.5073 193.634 60.5961 193.634 60.1405 193.634 59.6849 193.634 59.4571 193.862 59.0015 193.862 58.5459 194.09 58.3181 194.318L58.3181 188.622" transform="matrix(1 0 0 1.00051 748.228 120.404)"/><g><path d="M35.7654 194.09 45.3332 194.09 45.3332 195.457 35.7654 195.457 35.7654 194.09" transform="matrix(1 0 0 1.00051 748.228 120.404)"/></g><path d="M17.3132 259.47 18.9078 259.47C18.4522 259.925 17.9966 260.609 17.7688 261.064 17.541 261.748 17.3132 262.203 17.3132 262.887 17.3132 264.254 17.7688 265.165 18.4522 265.848 19.1356 266.532 20.2746 266.759 21.8693 266.759 23.2361 266.759 24.3751 266.532 25.2863 265.848 25.9698 265.165 26.4254 264.254 26.4254 262.887 26.4254 262.203 26.4254 261.748 25.9698 261.064 25.742 260.381 25.2863 259.925 24.8307 259.47L26.4254 259.47C26.881 259.925 27.1088 260.609 27.1088 261.064 27.1088 261.52 27.3366 262.203 27.3366 262.887 27.3366 264.481 26.881 265.848 25.742 266.759 24.8307 267.671 23.2361 268.126 21.6415 268.126 19.819 268.126 18.4522 267.671 17.541 266.759 16.6298 265.848 15.9463 264.481 15.9463 262.887 15.9463 262.203 15.9463 261.52 16.1741 261.064 16.8576 260.609 17.0854 259.925 17.3132 259.47" transform="matrix(1 0 0 1.00051 748.228 120.404)"/><path d="M19.1356 254.002C19.1356 252.863 19.5912 251.952 20.2746 251.269 20.958 250.585 22.0971 250.358 23.4639 250.358 24.8307 250.358 25.9698 250.813 26.6532 251.269 27.3366 251.952 27.7922 252.863 27.7922 254.002 27.7922 255.141 27.3366 256.053 26.6532 256.736 25.9698 257.419 24.8307 257.647 23.4639 257.647 22.0971 257.647 20.958 257.419 20.2746 256.736 19.5912 256.053 19.1356 255.141 19.1356 254.002M20.2746 254.002C20.2746 254.686 20.5024 255.369 21.1859 255.825 21.8693 256.28 22.5527 256.508 23.4639 256.508 24.3751 256.508 25.2863 256.28 25.742 255.825 26.4254 255.369 26.6532 254.914 26.6532 254.002 26.6532 253.319 26.4254 252.636 25.742 252.18 25.0585 251.724 24.3751 251.497 23.4639 251.497 22.5527 251.497 21.6415 251.724 21.1859 252.18 20.5024 252.636 20.2746 253.319 20.2746 254.002" transform="matrix(1 0 0 1.00051 748.228 120.404)"/><path d="M22.5527 241.018 27.5644 241.018 27.5644 242.384 22.5527 242.384C21.8693 242.384 21.1859 242.612 20.7302 242.84 20.2746 243.068 20.0468 243.523 20.0468 244.207 20.0468 244.89 20.2746 245.574 20.7302 246.029 21.1859 246.485 21.8693 246.713 22.5527 246.713L27.3366 246.713 27.3366 248.08 19.3634 248.08 19.3634 246.713 20.5024 246.713C20.0468 246.485 19.5912 246.029 19.3634 245.574 19.1356 245.118 18.9078 244.662 18.9078 243.979 18.9078 243.068 19.1356 242.384 19.819 241.929 20.5024 241.245 21.4137 241.018 22.5527 241.018" transform="matrix(1 0 0 1.00051 748.228 120.404)"/><path d="M19.3634 239.195 19.3634 237.828 26.1976 235.322 19.3634 232.589 19.3634 231.222 27.5644 234.411 27.5644 236.234 19.3634 239.195" transform="matrix(1 0 0 1.00051 748.228 120.404)"/><path d="M22.7805 223.477C22.0971 223.477 21.4137 223.704 20.958 224.16 20.5024 224.616 20.2746 225.071 20.2746 225.755 20.2746 226.438 20.5024 227.121 20.958 227.577 21.4137 228.033 22.0971 228.26 22.7805 228.26L22.7805 223.477M23.0083 222.11 23.6917 222.11 23.6917 228.488C24.6029 228.488 25.2863 228.26 25.742 227.577 26.1976 227.121 26.4254 226.438 26.4254 225.527 26.4254 225.071 26.4254 224.388 26.1976 223.932 25.9698 223.477 25.9698 223.021 25.5141 222.565L26.881 222.565C27.1088 223.021 27.3366 223.477 27.3366 224.16 27.3366 224.616 27.5644 225.299 27.5644 225.755 27.5644 227.121 27.1088 228.033 26.4254 228.944 25.742 229.627 24.6029 230.083 23.2361 230.083 21.8693 230.083 20.7302 229.627 20.0468 228.944 19.3634 228.26 18.9078 227.121 18.9078 225.982 18.9078 224.843 19.3634 223.932 20.0468 223.249 20.958 222.565 21.8693 222.11 23.0083 222.11" transform="matrix(1 0 0 1.00051 748.228 120.404)"/><path d="M20.5024 215.048C20.5024 215.276 20.2746 215.276 20.2746 215.503 20.2746 215.731 20.2746 215.959 20.2746 216.187 20.2746 216.87 20.5024 217.554 20.958 218.009 21.4137 218.465 22.0971 218.693 23.0083 218.693L27.3366 218.693 27.3366 220.06 19.3634 220.06 19.3634 218.693 20.5024 218.693C20.0468 218.465 19.5912 218.009 19.3634 217.554 19.1356 217.098 18.9078 216.642 18.9078 215.959 18.9078 215.959 18.9078 215.731 18.9078 215.731 18.9078 215.731 18.9078 215.503 18.9078 215.276L20.5024 215.276" transform="matrix(1 0 0 1.00051 748.228 120.404)"/><path d="M19.5912 208.441 20.958 208.441C20.7302 208.897 20.5024 209.125 20.5024 209.58 20.5024 210.036 20.2746 210.492 20.2746 210.947 20.2746 211.631 20.2746 212.086 20.5024 212.542 20.7302 212.77 20.958 212.998 21.4137 212.998 21.6415 212.998 21.8693 212.77 22.0971 212.542 22.3249 212.314 22.5527 211.859 22.5527 211.175L22.5527 210.72C22.7805 209.808 23.0083 209.125 23.4639 208.669 23.9195 208.214 24.3751 207.986 25.0585 207.986 25.742 207.986 26.4254 208.214 26.881 208.897 27.3366 209.58 27.5644 210.264 27.5644 211.403 27.5644 211.859 27.5644 212.314 27.3366 212.77 27.3366 213.225 27.1088 213.681 26.881 214.364L25.5141 214.364C25.742 213.909 25.9698 213.453 26.1976 212.77 26.4254 212.314 26.4254 211.859 26.4254 211.403 26.4254 210.72 26.4254 210.264 26.1976 209.808 25.9698 209.58 25.742 209.353 25.2863 209.353 24.8307 209.353 24.6029 209.58 24.3751 209.808 24.1473 210.036 23.9195 210.492 23.6917 211.403L23.6917 211.859C23.4639 212.77 23.2361 213.225 22.7805 213.681 22.7805 214.137 22.0971 214.364 21.6415 214.364 20.958 214.364 20.2746 214.137 19.819 213.453 19.3634 212.77 19.1356 212.086 19.1356 211.175 19.1356 210.72 19.1356 210.264 19.3634 209.808 19.3634 209.125 19.3634 208.897 19.5912 208.441" transform="matrix(1 0 0 1.00051 748.228 120.404)"/><path d="M16.1741 205.708 16.1741 204.341 17.9966 204.341 17.9966 205.708 16.1741 205.708M19.3634 205.708 19.3634 204.341 27.5644 204.341 27.5644 205.708 19.3634 205.708" transform="matrix(1 0 0 1.00051 748.228 120.404)"/><path d="M19.1356 198.418C19.1356 197.279 19.5912 196.368 20.2746 195.684 20.958 195.001 22.0971 194.773 23.4639 194.773 24.8307 194.773 25.9698 195.229 26.6532 195.684 27.3366 196.368 27.7922 197.279 27.7922 198.418 27.7922 199.557 27.3366 200.468 26.6532 201.152 25.9698 201.835 24.8307 202.063 23.4639 202.063 22.0971 202.063 20.958 201.835 20.2746 201.152 19.5912 200.468 19.1356 199.557 19.1356 198.418M20.2746 198.418C20.2746 199.101 20.5024 199.785 21.1859 200.24 21.8693 200.696 22.5527 200.924 23.4639 200.924 24.3751 200.924 25.2863 200.696 25.742 200.24 26.4254 199.785 26.6532 199.329 26.6532 198.418 26.6532 197.735 26.4254 197.051 25.742 196.596 25.0585 196.14 24.3751 195.912 23.4639 195.912 22.5527 195.912 21.6415 196.14 21.1859 196.596 20.5024 197.051 20.2746 197.735 20.2746 198.418" transform="matrix(1 0 0 1.00051 748.228 120.404)"/><path d="M22.5527 185.433 27.5644 185.433 27.5644 186.8 22.5527 186.8C21.8693 186.8 21.1859 187.028 20.7302 187.256 20.2746 187.483 20.0468 187.939 20.0468 188.622 20.0468 189.306 20.2746 189.989 20.7302 190.445 21.1859 190.9 21.8693 191.128 22.5527 191.128L27.3366 191.128 27.3366 192.495 19.3634 192.495 19.3634 191.128 20.5024 191.128C20.0468 190.9 19.5912 190.445 19.3634 189.989 19.1356 189.534 18.9078 189.078 18.9078 188.395 18.9078 187.483 19.1356 186.8 19.819 186.344 20.5024 185.661 21.4137 185.433 22.5527 185.433" transform="matrix(1 0 0 1.00051 748.228 120.404)"/><path d="M22.7805 171.993C22.0971 171.993 21.4137 172.22 20.958 172.676 20.5024 173.132 20.2746 173.587 20.2746 174.271 20.2746 174.954 20.5024 175.638 20.958 176.093 21.4137 176.549 22.0971 176.777 22.7805 176.777L22.7805 171.993M23.0083 170.626 23.6917 170.626 23.6917 177.004C24.6029 177.004 25.2863 176.777 25.742 176.093 26.1976 175.638 26.4254 174.954 26.4254 174.043 26.4254 173.587 26.4254 172.904 26.1976 172.448 25.9698 171.993 25.9698 171.537 25.5141 171.081L26.881 171.081C27.1088 171.537 27.3366 171.993 27.3366 172.676 27.3366 173.36 27.5644 173.815 27.5644 174.271 27.5644 175.638 27.1088 176.549 26.4254 177.46 25.742 178.143 24.6029 178.599 23.2361 178.599 21.8693 178.599 20.7302 178.143 20.0468 177.46 19.3634 176.777 18.9078 175.638 18.9078 174.499 18.9078 173.36 19.3634 172.448 20.0468 171.765 20.958 171.081 21.8693 170.626 23.0083 170.626" transform="matrix(1 0 0 1.00051 748.228 120.404)"/><path d="M16.1741 164.247 17.3132 164.247 17.3132 165.614C17.3132 166.07 17.3132 166.525 17.541 166.525 17.7688 166.753 17.9966 166.753 18.68 166.753L19.3634 166.753 19.3634 164.475 20.5024 164.475 20.5024 166.753 27.7922 166.753 27.7922 168.12 20.2746 168.12 20.2746 169.487 19.3634 169.487 19.3634 168.12 18.68 168.12C17.7688 168.12 17.0854 167.892 16.6298 167.437 16.1741 166.981 15.9463 166.298 15.9463 165.386L15.9463 164.247" transform="matrix(1 0 0 1.00051 748.228 120.404)"/><path d="M16.1741 159.008 17.3132 159.008 17.3132 160.375C17.3132 160.83 17.3132 161.286 17.541 161.286 17.7688 161.514 17.9966 161.514 18.68 161.514L19.3634 161.514 19.3634 159.236 20.5024 159.236 20.5024 161.514 27.7922 161.514 27.7922 162.88 20.2746 162.88 20.2746 164.247 19.3634 164.247 19.3634 162.88 18.68 162.88C17.7688 162.88 17.0854 162.653 16.6298 162.197 16.1741 161.741 15.9463 161.058 15.9463 160.147L15.9463 159.008" transform="matrix(1 0 0 1.00051 748.228 120.404)"/><path d="M16.1741 157.869 16.1741 156.502 17.9966 156.502 17.9966 157.869 16.1741 157.869M19.3634 157.869 19.3634 156.502 27.5644 156.502 27.5644 157.869 19.3634 157.869" transform="matrix(1 0 0 1.00051 748.228 120.404)"/><path d="M19.5912 147.618 20.958 147.618C20.7302 148.073 20.5024 148.301 20.5024 148.757 20.5024 149.212 20.2746 149.44 20.2746 149.896 20.2746 150.807 20.5024 151.49 21.1859 151.946 21.6415 152.401 22.5527 152.629 23.4639 152.629 24.3751 152.629 25.2863 152.401 25.742 151.946 26.1976 151.49 26.6532 150.807 26.6532 149.896 26.6532 149.44 26.6532 149.212 26.4254 148.757 26.4254 148.301 26.1976 148.073 25.9698 147.618L27.3366 147.618C27.5644 148.073 27.5644 148.301 27.7922 148.757 27.7922 149.212 28.02 149.668 28.02 150.123 28.02 151.262 27.5644 152.401 26.881 153.085 26.1976 153.768 25.0585 154.224 23.6917 154.224 22.3249 154.224 21.1859 153.768 20.5024 153.085 19.819 152.401 19.3634 151.262 19.3634 150.123 19.3634 149.668 19.3634 149.212 19.5912 148.984 19.3634 148.301 19.3634 148.073 19.5912 147.618" transform="matrix(1 0 0 1.00051 748.228 120.404)"/><path d="M16.1741 145.34 16.1741 143.973 17.9966 143.973 17.9966 145.34 16.1741 145.34M19.3634 145.34 19.3634 143.973 27.5644 143.973 27.5644 145.34 19.3634 145.34" transform="matrix(1 0 0 1.00051 748.228 120.404)"/><path d="M22.7805 135.316C22.0971 135.316 21.4137 135.544 20.958 136 20.5024 136.455 20.2746 136.911 20.2746 137.594 20.2746 138.278 20.5024 138.961 20.958 139.417 21.4137 139.872 22.0971 140.1 22.7805 140.1L22.7805 135.316M23.0083 133.949 23.6917 133.949 23.6917 140.328C24.6029 140.328 25.2863 140.1 25.742 139.417 26.1976 138.961 26.4254 138.278 26.4254 137.366 26.4254 136.911 26.4254 136.227 26.1976 135.772 25.9698 135.316 25.9698 134.86 25.5141 134.405L26.881 134.405C27.1088 134.86 27.3366 135.316 27.3366 136 27.3366 136.455 27.5644 137.139 27.5644 137.594 27.5644 138.961 27.1088 139.872 26.4254 140.783 25.742 141.467 24.6029 141.922 23.2361 141.922 21.8693 141.922 20.7302 141.467 20.0468 140.783 19.3634 140.1 18.9078 138.961 18.9078 137.822 18.9078 136.683 19.3634 135.772 20.0468 135.088 20.958 134.177 21.8693 133.949 23.0083 133.949" transform="matrix(1 0 0 1.00051 748.228 120.404)"/><path d="M22.5527 124.837 27.5644 124.837 27.5644 126.204 22.5527 126.204C21.8693 126.204 21.1859 126.432 20.7302 126.66 20.2746 126.887 20.0468 127.343 20.0468 128.026 20.0468 128.71 20.2746 129.393 20.7302 129.849 21.1859 130.304 21.8693 130.532 22.5527 130.532L27.3366 130.532 27.3366 131.899 19.3634 131.899 19.3634 130.532 20.5024 130.532C20.0468 130.304 19.5912 129.849 19.3634 129.393 19.1356 128.938 18.9078 128.482 18.9078 127.799 18.9078 126.887 19.1356 126.204 19.819 125.748 20.5024 125.065 21.4137 124.837 22.5527 124.837" transform="matrix(1 0 0 1.00051 748.228 120.404)"/><path d="M19.5912 115.953 20.958 115.953C20.7302 116.408 20.5024 116.864 20.5024 117.32 20.5024 117.775 20.2746 118.003 20.2746 118.459 20.2746 119.37 20.5024 120.053 21.1859 120.509 21.6415 120.964 22.5527 121.192 23.4639 121.192 24.3751 121.192 25.2863 120.964 25.742 120.509 26.1976 120.053 26.6532 119.37 26.6532 118.459 26.6532 118.003 26.6532 117.775 26.4254 117.32 26.4254 116.864 26.1976 116.636 25.9698 116.18L27.3366 116.18C27.5644 116.636 27.5644 116.864 27.7922 117.32 27.7922 117.775 28.02 118.231 28.02 118.686 28.02 119.825 27.5644 120.964 26.881 121.648 26.1976 122.331 25.0585 122.787 23.6917 122.787 22.3249 122.787 21.1859 122.331 20.5024 121.648 19.5912 120.737 19.1356 119.825 19.1356 118.459 19.1356 118.003 19.1356 117.547 19.3634 117.32 19.3634 116.864 19.3634 116.408 19.5912 115.953" transform="matrix(1 0 0 1.00051 748.228 120.404)"/><path d="M28.4756 110.258C29.3868 110.713 30.0702 110.941 30.298 111.397 30.5259 111.852 30.7537 112.308 30.7537 112.763L30.7537 113.902 29.6146 113.902 29.6146 112.991C29.6146 112.536 29.6146 112.308 29.3868 112.08 29.159 111.852 28.7034 111.624 28.02 111.397L27.3366 111.169 19.1356 114.586 19.1356 113.219 25.742 110.713 19.1356 108.207 19.1356 106.84 28.4756 110.258" transform="matrix(1 0 0 1.00051 748.228 120.404)"/><path d="M16.1741 96.5893C17.3132 97.2727 18.4522 97.7283 19.5912 97.9561 20.7302 98.1839 21.8693 98.4117 23.0083 98.4117 24.1473 98.4117 25.2863 98.1839 26.4254 97.9561 27.5644 97.7283 28.7034 97.0449 29.8424 96.5893L29.8424 97.7283C28.7034 98.4117 27.5644 99.0951 26.4254 99.3229 25.2863 99.7785 24.1473 99.7785 23.0083 99.7785 21.8693 99.7785 20.7302 99.5507 19.5912 99.3229 18.4522 98.8673 17.3132 98.4117 16.1741 97.7283L16.1741 96.5893" transform="matrix(1 0 0 1.00051 748.228 120.404)"/><path d="M23.4639 93.1722C24.3751 93.1722 25.2863 92.9444 25.742 92.4888 26.4254 92.0332 26.6532 91.5776 26.6532 90.6663 26.6532 89.9829 26.4254 89.2995 25.742 89.0717 25.0585 88.6161 24.3751 88.3883 23.4639 88.3883 22.5527 88.3883 21.6415 88.6161 21.1859 89.0717 20.5024 89.5273 20.2746 89.9829 20.2746 90.6663 20.2746 91.3498 20.5024 92.0332 21.1859 92.4888 21.6415 92.9444 22.5527 93.1722 23.4639 93.1722M20.5024 88.3883 15.9463 88.3883 15.9463 87.0215 27.5644 87.0215 27.5644 88.3883 26.4254 88.3883C26.881 88.6161 27.3366 89.0717 27.5644 89.5273 27.7922 89.9829 28.02 90.4385 28.02 91.1219 28.02 92.0332 27.5644 92.9444 26.881 93.6278 26.1976 94.3112 25.0585 94.539 23.6917 94.539 22.3249 94.539 21.4137 94.3112 20.5024 93.6278 19.819 92.9444 19.3634 92.261 19.3634 91.1219 19.3634 90.4385 19.5912 89.9829 19.819 89.5273 19.819 89.0717 20.0468 88.8439 20.5024 88.3883" transform="matrix(1 0 0 1.00051 748.228 120.404)"/><path d="M16.6298 84.2878 16.6298 80.4151C16.6298 79.2761 16.8576 78.3649 17.3132 77.6815 17.7688 76.998 18.4522 76.7702 19.3634 76.7702 20.0468 76.7702 20.5024 76.998 20.958 77.2259 21.4137 77.4537 21.6415 77.9093 21.6415 78.5927 21.8693 77.9093 22.0971 77.2259 22.5527 76.7702 23.0083 76.3146 23.6917 76.0868 24.3751 76.0868 25.2863 76.0868 26.1976 76.5424 26.6532 76.998 27.1088 77.6815 27.5644 78.5927 27.5644 79.9595L27.5644 84.2878 16.6298 84.2878M17.7688 82.6932 21.1859 82.6932 21.1859 80.4151C21.1859 79.7317 20.958 79.0483 20.7302 78.8205 20.5024 78.3649 20.0468 78.3649 19.3634 78.3649 18.9078 78.3649 18.4522 78.5927 18.2244 78.8205 17.9966 79.2761 17.7688 79.7317 17.7688 80.4151L17.7688 82.6932M22.3249 82.6932 26.4254 82.6932 26.4254 80.1873C26.4254 79.2761 26.1976 78.8205 25.9698 78.3649 25.742 77.9093 25.0585 77.6815 24.3751 77.6815 23.6917 77.6815 23.2361 77.9093 22.7805 78.3649 22.5527 78.8205 22.3249 79.2761 22.3249 80.1873L22.3249 82.6932" transform="matrix(1 0 0 1.00051 748.228 120.404)"/><path d="M16.1741 74.0366 16.1741 72.8976C17.3132 72.2141 18.4522 71.5307 19.5912 71.3029 20.7302 71.0751 21.6415 70.6195 22.7805 70.6195 23.9195 70.6195 25.0585 70.8473 26.1976 71.0751 27.3366 71.5307 28.4756 71.9863 29.6146 72.6698L29.6146 73.8088C28.4756 73.1254 27.3366 72.6698 26.1976 72.4419 25.0585 72.2141 23.9195 71.9863 22.7805 71.9863 21.6415 71.9863 20.5024 72.2141 19.3634 72.4419 18.4522 72.8976 17.3132 73.3532 16.1741 74.0366" transform="matrix(1 0 0 1.00051 748.228 120.404)"/><g><path d="M89.9829 175.638 98.4117 176.093 106.84 176.549 115.497 175.638 123.926 176.093 132.355 176.777 141.011 177.004 149.44 177.688 157.869 178.371 166.298 179.055 174.954 179.966 183.383 180.649 191.812 180.877 200.468 181.788 208.897 182.927 217.326 184.522 225.982 186.572 234.411 187.939 242.84 190.673 251.497 192.495 259.925 194.773 268.354 198.874 280.2 202.291 283.617 204.341 287.034 207.075 290.451 210.492 297.285 220.287 300.702 228.716 304.12 249.674 307.537 241.473 314.371 218.92 317.56 216.415 319.382 211.403 327.811 206.163 336.468 202.974 344.897 202.974 353.325 200.924 361.754 200.468 370.411 200.24 378.84 198.19 387.268 197.962 395.925 198.418 404.354 197.962 412.782 197.735 421.439 198.874" stroke="#1F77B4" stroke-width="1.51878" stroke-linecap="square" stroke-linejoin="round" stroke-miterlimit="10" fill="none" transform="matrix(1 0 0 1.00051 748.228 120.404)"/></g><g><path d="M89.9829 188.395 98.4117 186.572 106.84 184.75 115.497 184.978 123.926 184.522 132.355 183.155 141.011 182.244 149.44 182.244 157.869 181.56 166.298 180.194 174.954 179.51 183.383 179.055 191.812 179.055 200.468 177.916 208.897 177.46 217.326 177.004 225.982 176.321 234.411 175.638 242.84 175.182 251.497 175.182 259.925 175.865 268.354 176.549 280.2 176.093 283.617 176.321 287.034 176.321 290.451 176.777 297.285 177.46 300.702 177.232 304.12 177.46 307.537 177.46 314.371 177.232 317.56 177.46 319.382 177.688 327.811 178.599 336.468 179.282 344.897 179.966 353.325 181.56 361.754 183.155 370.411 184.75 378.84 187.028 387.268 188.167 395.925 188.167 404.354 190.9 412.782 193.179 421.439 193.862" stroke="#FF7F0E" stroke-width="1.51878" stroke-linecap="square" stroke-linejoin="round" stroke-miterlimit="10" fill="none" transform="matrix(1 0 0 1.00051 748.228 120.404)"/></g><path d="M73.3532 277.466 73.3532 169.942" stroke="#000000" stroke-width="0.809846" stroke-linecap="square" stroke-miterlimit="10" fill="none" transform="matrix(1 0 0 1.00051 748.228 120.404)"/><path d="M437.841 277.466 437.841 169.942" stroke="#000000" stroke-width="0.809846" stroke-linecap="square" stroke-miterlimit="10" fill="none" transform="matrix(1 0 0 1.00051 748.228 120.404)"/><path d="M73.3532 277.466 437.841 277.466" stroke="#000000" stroke-width="0.809846" stroke-linecap="square" stroke-miterlimit="10" fill="none" transform="matrix(1 0 0 1.00051 748.228 120.404)"/><path d="M73.3532 169.942 437.841 169.942" stroke="#000000" stroke-width="0.809846" stroke-linecap="square" stroke-miterlimit="10" fill="none" transform="matrix(1 0 0 1.00051 748.228 120.404)"/><text fill="#1F77B4" font-family="Calibri,Calibri_MSFontService,sans-serif" font-weight="400" font-size="10" transform="matrix(2.26028 0 0 2.27921 1085.75 246)">F</text><text fill="#1F77B4" font-family="Calibri,Calibri_MSFontService,sans-serif" font-weight="400" font-size="10" transform="matrix(2.26028 0 0 2.27921 1095.92 246)">o</text><text fill="#1F77B4" font-family="Calibri,Calibri_MSFontService,sans-serif" font-weight="400" font-size="10" transform="matrix(2.26028 0 0 2.27921 1107.68 246)">r</text><text fill="#1F77B4" font-family="Calibri,Calibri_MSFontService,sans-serif" font-weight="400" font-size="10" transform="matrix(2.26028 0 0 2.27921 1115.81 246)">w</text><text fill="#1F77B4" font-family="Calibri,Calibri_MSFontService,sans-serif" font-weight="400" font-size="10" transform="matrix(2.26028 0 0 2.27921 1131.86 246)">a</text><text fill="#1F77B4" font-family="Calibri,Calibri_MSFontService,sans-serif" font-weight="400" font-size="10" transform="matrix(2.26028 0 0 2.27921 1142.48 246)">r</text><text fill="#1F77B4" font-family="Calibri,Calibri_MSFontService,sans-serif" font-weight="400" font-size="10" transform="matrix(2.26028 0 0 2.27921 1150.17 246)">d</text><text fill="#FF7F0E" font-family="Calibri,Calibri_MSFontService,sans-serif" font-weight="400" font-size="10" transform="matrix(2.26028 0 0 2.27921 1081.83 275)">B</text><text fill="#FF7F0E" font-family="Calibri,Calibri_MSFontService,sans-serif" font-weight="400" font-size="10" transform="matrix(2.26028 0 0 2.27921 1094.03 275)">a</text><text fill="#FF7F0E" font-family="Calibri,Calibri_MSFontService,sans-serif" font-weight="400" font-size="10" transform="matrix(2.26028 0 0 2.27921 1104.88 275)">c</text><text fill="#FF7F0E" font-family="Calibri,Calibri_MSFontService,sans-serif" font-weight="400" font-size="10" transform="matrix(2.26028 0 0 2.27921 1114.6 275)">k</text><text fill="#FF7F0E" font-family="Calibri,Calibri_MSFontService,sans-serif" font-weight="400" font-size="10" transform="matrix(2.26028 0 0 2.27921 1124.77 275)">w</text><text fill="#FF7F0E" font-family="Calibri,Calibri_MSFontService,sans-serif" font-weight="400" font-size="10" transform="matrix(2.26028 0 0 2.27921 1140.59 275)">a</text><text fill="#FF7F0E" font-family="Calibri,Calibri_MSFontService,sans-serif" font-weight="400" font-size="10" transform="matrix(2.26028 0 0 2.27921 1151.44 275)">r</text><text fill="#FF7F0E" font-family="Calibri,Calibri_MSFontService,sans-serif" font-weight="400" font-size="10" transform="matrix(2.26028 0 0 2.27921 1159.13 275)">d</text><path d="M157.869 62.1907 274.277 62.1907 274.277 169.715 157.869 169.715Z" fill="#A399F7" fill-opacity="0.45" transform="matrix(1 0 0 1.00051 748.228 120.404)"/><path d="M249.219 169.715 357.881 169.715 357.881 277.239 249.219 277.239Z" fill="#F8E6AC" fill-opacity="0.45" transform="matrix(1 0 0 1.00051 748.228 120.404)"/><path d="M279.744 119.825 327.128 119.825" stroke="#1F77B4" stroke-width="1.37093" stroke-linecap="square" stroke-linejoin="round" stroke-miterlimit="10" fill="none" transform="matrix(1 0 0 1.00051 748.228 120.404)"/><path d="M279.744 146.023 327.128 146.023" stroke="#FF7F0E" stroke-width="1.37093" stroke-linecap="square" stroke-linejoin="round" stroke-miterlimit="10" fill="none" transform="matrix(1 0 0 1.00051 748.228 120.404)"/><path d="M89.5273 62.1907 89.5273 58.5459" stroke="#000000" stroke-width="0.838322" stroke-linejoin="round" stroke-miterlimit="10" fill="none" transform="matrix(1 0 0 1.00051 748.228 120.404)"/><path d="M69.9361 49.8893 75.4034 49.8893 75.4034 51.2561 68.1137 51.2561 68.1137 49.8893C68.7971 49.2059 69.4805 48.5224 70.6195 47.3834 71.5307 46.4722 72.2141 45.7888 72.4419 45.3332 72.8976 44.8776 73.3532 44.422 73.581 43.9663 73.8088 43.5107 73.8088 43.2829 73.8088 42.8273 73.8088 42.1439 73.581 41.6883 73.1254 41.4605 72.6698 41.0049 72.2141 40.7771 71.5307 40.7771 71.0751 40.7771 70.6195 40.7771 69.9361 41.0049 69.4805 41.2327 68.7971 41.4605 68.1137 41.6883L68.1137 40.0937C68.7971 39.8659 69.2527 39.638 69.9361 39.638 70.3917 39.4102 71.0751 39.4102 71.5307 39.4102 72.6698 39.4102 73.581 39.638 74.2644 40.3215 74.9478 41.0049 75.4034 41.6883 75.4034 42.5995 75.4034 43.0551 75.4034 43.5107 75.1756 43.9663 74.9478 44.422 74.72 44.8776 74.2644 45.561 74.0366 45.7888 73.8088 46.2444 73.1254 46.9278 72.2141 47.6112 71.0751 48.5224 69.9361 49.8893" transform="matrix(1 0 0 1.00051 748.228 120.404)"/><path d="M81.782 39.4102C83.1488 39.4102 84.06 39.8659 84.7434 41.0049 85.4268 41.9161 85.6546 43.5107 85.6546 45.3332 85.6546 47.1556 85.199 48.7502 84.7434 49.6615 84.06 50.5727 83.1488 51.2561 81.782 51.2561 80.4151 51.2561 79.5039 50.8005 78.8205 49.6615 78.1371 48.7502 77.9093 47.1556 77.9093 45.3332 77.9093 43.5107 78.1371 41.9161 78.8205 41.0049 79.5039 40.0937 80.6429 39.4102 81.782 39.4102M81.782 40.7771C80.8707 40.7771 80.4151 41.2327 79.9595 41.9161 79.5039 42.5995 79.2761 43.9663 79.2761 45.561 79.2761 47.1556 79.5039 48.2946 79.9595 49.2059 80.4151 49.8893 80.8707 50.3449 81.782 50.3449 82.6932 50.3449 83.1488 49.8893 83.6044 49.2059 84.06 48.5224 84.2878 47.1556 84.2878 45.561 84.2878 43.9663 84.06 42.8273 83.6044 41.9161 83.3766 41.0049 82.6932 40.7771 81.782 40.7771" transform="matrix(1 0 0 1.00051 748.228 120.404)"/><path d="M89.9829 49.8893 95.4502 49.8893 95.4502 51.2561 88.1605 51.2561 88.1605 49.8893C88.8439 49.2059 89.5273 48.5224 90.6663 47.3834 91.5776 46.4722 92.261 45.7888 92.4888 45.3332 92.9444 44.8776 93.4 44.422 93.6278 43.9663 93.8556 43.5107 93.8556 43.2829 93.8556 42.8273 93.8556 42.1439 93.6278 41.6883 93.1722 41.4605 92.7166 41.0049 92.261 40.7771 91.5776 40.7771 91.1219 40.7771 90.6663 40.7771 89.9829 41.0049 89.5273 41.2327 88.8439 41.4605 88.1605 41.6883L88.1605 40.0937C88.8439 39.8659 89.2995 39.638 89.9829 39.638 90.4385 39.4102 91.1219 39.4102 91.5776 39.4102 92.7166 39.4102 93.6278 39.638 94.3112 40.3215 94.9946 41.0049 95.4502 41.6883 95.4502 42.5995 95.4502 43.0551 95.4502 43.5107 95.2224 43.9663 94.9946 44.422 94.7668 44.8776 94.3112 45.561 94.0834 45.7888 93.8556 46.2444 93.1722 46.9278 92.0332 47.6112 91.1219 48.5224 89.9829 49.8893" transform="matrix(1 0 0 1.00051 748.228 120.404)"/><path d="M98.6395 49.2059 100.234 49.2059 100.234 51.2561 98.6395 51.2561 98.6395 49.2059" transform="matrix(1 0 0 1.00051 748.228 120.404)"/><path d="M110.258 39.8659 110.258 41.2327C109.802 41.2327 109.346 41.0049 108.891 41.0049 108.435 41.0049 107.98 40.7771 107.752 40.7771 106.613 40.7771 105.929 41.2327 105.474 41.9161 105.018 42.5995 104.562 43.7385 104.562 45.1054 104.79 44.6498 105.246 44.422 105.701 44.1941 106.157 43.9663 106.613 43.7385 107.296 43.7385 108.435 43.7385 109.346 44.1941 110.03 44.8776 110.713 45.561 110.941 46.4722 110.941 47.6112 110.941 48.7502 110.485 49.6615 109.802 50.3449 109.119 51.0283 108.207 51.4839 107.068 51.4839 105.701 51.4839 104.79 51.0283 104.107 49.8893 103.423 48.978 102.968 47.3834 102.968 45.561 102.968 43.7385 103.423 42.3717 104.335 41.2327 105.246 40.0937 106.385 39.638 107.752 39.638 108.207 39.638 108.435 39.638 108.891 39.638 109.346 39.638 109.802 39.8659 110.258 39.8659M107.068 44.8776C106.385 44.8776 105.929 45.1054 105.474 45.561 105.018 46.0166 104.79 46.7 104.79 47.6112 104.79 48.5224 105.018 49.2059 105.474 49.6615 105.929 50.1171 106.385 50.3449 107.068 50.3449 107.752 50.3449 108.207 50.1171 108.663 49.6615 109.119 49.2059 109.346 48.5224 109.346 47.6112 109.346 46.7 109.119 46.2444 108.663 45.561 108.207 45.1054 107.752 44.8776 107.068 44.8776" transform="matrix(1 0 0 1.00051 748.228 120.404)"/><path d="M158.324 62.1907 158.324 58.5459" stroke="#000000" stroke-width="0.838322" stroke-linejoin="round" stroke-miterlimit="10" fill="none" transform="matrix(1 0 0 1.00051 748.228 120.404)"/><path d="M137.822 50.3449 140.328 50.3449 140.328 41.4605 137.594 42.1439 137.594 40.5493 140.328 40.0937 141.695 40.0937 141.695 50.3449 144.428 50.3449 144.428 51.4839 137.822 51.4839 137.822 50.3449" transform="matrix(1 0 0 1.00051 748.228 120.404)"/><path d="M150.579 46.4722C151.262 46.4722 151.718 46.2444 152.174 45.7888 152.629 45.3332 152.857 44.6498 152.857 43.7385 152.857 42.8273 152.629 42.3717 152.174 41.6883 151.718 41.2327 151.262 41.0049 150.579 41.0049 149.896 41.0049 149.44 41.2327 148.984 41.6883 148.529 42.1439 148.301 42.8273 148.301 43.7385 148.301 44.6498 148.529 45.3332 148.984 45.7888 149.44 46.2444 149.896 46.4722 150.579 46.4722M147.39 51.2561 147.39 49.8893C147.845 50.1171 148.073 50.1171 148.529 50.3449 148.984 50.3449 149.212 50.5727 149.668 50.5727 150.579 50.5727 151.49 50.3449 151.946 49.6615 152.401 48.978 152.857 47.839 152.857 46.4722 152.629 46.9278 152.174 47.1556 151.718 47.3834 151.262 47.6112 150.807 47.839 150.123 47.839 148.984 47.839 148.073 47.3834 147.39 46.7 146.706 46.0166 146.479 45.1054 146.479 43.9663 146.479 42.8273 146.934 41.9161 147.618 41.2327 148.301 40.5493 149.212 40.0937 150.351 40.0937 151.718 40.0937 152.629 40.5493 153.313 41.6883 153.996 42.5995 154.452 44.1941 154.452 46.0166 154.452 47.839 153.996 49.2059 153.085 50.3449 152.174 51.4839 151.035 51.9395 149.668 51.9395 149.212 51.9395 148.984 51.9395 148.529 51.9395 148.301 51.4839 147.845 51.4839 147.39 51.2561" transform="matrix(1 0 0 1.00051 748.228 120.404)"/><path d="M160.602 46.4722C161.286 46.4722 161.741 46.2444 162.197 45.7888 162.653 45.3332 162.88 44.6498 162.88 43.7385 162.88 42.8273 162.653 42.3717 162.197 41.6883 161.741 41.4605 161.286 41.0049 160.602 41.0049 159.919 41.0049 159.463 41.2327 159.008 41.6883 158.552 42.1439 158.324 42.8273 158.324 43.7385 158.324 44.6498 158.552 45.3332 159.008 45.7888 159.236 46.2444 159.919 46.4722 160.602 46.4722M157.413 51.2561 157.413 49.8893C157.869 50.1171 158.097 50.1171 158.552 50.3449 159.008 50.3449 159.236 50.5727 159.691 50.5727 160.602 50.5727 161.514 50.3449 161.969 49.6615 162.425 48.978 162.88 47.839 162.88 46.4722 162.653 46.9278 162.197 47.1556 161.741 47.3834 161.286 47.6112 160.83 47.839 160.147 47.839 159.008 47.839 158.097 47.3834 157.413 46.7 156.73 46.0166 156.502 45.1054 156.502 43.9663 156.502 42.8273 156.958 41.9161 157.641 41.2327 158.324 40.5493 159.236 40.0937 160.375 40.0937 161.741 40.0937 162.653 40.5493 163.336 41.6883 164.02 42.5995 164.475 44.1941 164.475 46.0166 164.475 47.839 164.02 49.2059 163.108 50.3449 162.197 51.4839 161.058 51.9395 159.691 51.9395 159.236 51.9395 159.008 51.9395 158.552 51.9395 158.324 51.4839 157.869 51.4839 157.413 51.2561" transform="matrix(1 0 0 1.00051 748.228 120.404)"/><path d="M167.437 49.6615 169.031 49.6615 169.031 51.4839 167.437 51.4839 167.437 49.6615" transform="matrix(1 0 0 1.00051 748.228 120.404)"/><path d="M175.638 46.4722C176.321 46.4722 176.777 46.2444 177.232 45.7888 177.688 45.3332 177.916 44.6498 177.916 43.7385 177.916 42.8273 177.688 42.3717 177.232 41.6883 176.777 41.2327 176.321 41.0049 175.638 41.0049 174.954 41.0049 174.499 41.2327 174.043 41.6883 173.587 42.1439 173.36 42.8273 173.36 43.7385 173.36 44.6498 173.587 45.3332 174.043 45.7888 174.271 46.2444 174.954 46.4722 175.638 46.4722M172.448 51.2561 172.448 49.8893C172.904 50.1171 173.132 50.1171 173.587 50.3449 174.043 50.3449 174.271 50.5727 174.726 50.5727 175.638 50.5727 176.549 50.3449 177.004 49.6615 177.46 48.978 177.916 47.839 177.916 46.4722 177.688 46.9278 177.232 47.1556 176.777 47.3834 176.321 47.6112 175.865 47.839 175.182 47.839 174.043 47.839 173.132 47.3834 172.448 46.7 171.765 46.0166 171.537 45.1054 171.537 43.9663 171.537 42.8273 171.993 41.9161 172.676 41.2327 173.36 40.5493 174.271 40.0937 175.41 40.0937 176.777 40.0937 177.688 40.5493 178.371 41.6883 179.055 42.5995 179.51 44.1941 179.51 46.0166 179.51 47.839 179.055 49.2059 178.143 50.3449 177.232 51.4839 176.093 51.9395 174.726 51.9395 174.271 51.9395 174.043 51.9395 173.587 51.9395 173.36 51.4839 172.904 51.4839 172.448 51.2561" transform="matrix(1 0 0 1.00051 748.228 120.404)"/><path d="M225.982 61.7351 225.982 58.0902" stroke="#000000" stroke-width="0.838322" stroke-linejoin="round" stroke-miterlimit="10" fill="none" transform="matrix(1 0 0 1.00051 748.228 120.404)"/><path d="M205.252 49.8893 207.758 49.8893 207.758 41.0049 205.024 41.6883 205.024 40.3215 207.758 39.638 209.353 39.638 209.353 49.8893 211.859 49.8893 211.859 51.2561 205.252 51.2561 205.252 49.8893" transform="matrix(1 0 0 1.00051 748.228 120.404)"/><path d="M218.237 46.0166C218.92 46.0166 219.376 45.7888 219.832 45.3332 220.287 44.8776 220.515 44.1941 220.515 43.2829 220.515 42.3717 220.287 41.9161 219.832 41.2327 219.376 40.7771 218.92 40.5493 218.237 40.5493 217.554 40.5493 217.098 40.7771 216.642 41.2327 216.187 41.6883 215.959 42.3717 215.959 43.2829 215.959 44.1941 216.187 44.8776 216.642 45.3332 216.87 45.7888 217.554 46.0166 218.237 46.0166M215.048 50.8005 215.048 49.4337C215.503 49.6615 215.731 49.6615 216.187 49.8893 216.642 49.8893 216.87 50.1171 217.326 50.1171 218.237 50.1171 219.148 49.8893 219.604 49.2059 220.06 48.5224 220.515 47.3834 220.515 46.0166 220.287 46.4722 219.832 46.7 219.376 46.9278 218.92 47.1556 218.465 47.3834 217.781 47.3834 216.642 47.3834 215.731 46.9278 215.048 46.2444 214.364 45.561 214.137 44.6498 214.137 43.5107 214.137 42.3717 214.592 41.4605 215.276 40.7771 215.959 40.0937 216.87 39.638 218.009 39.638 219.376 39.638 220.287 40.0937 220.971 41.2327 221.654 42.1439 222.11 43.7385 222.11 45.561 222.11 47.3834 221.654 48.7502 220.743 49.8893 219.832 51.0283 218.693 51.4839 217.326 51.4839 216.87 51.4839 216.642 51.4839 216.187 51.4839 215.959 51.2561 215.503 51.0283 215.048 50.8005" transform="matrix(1 0 0 1.00051 748.228 120.404)"/><path d="M224.616 39.638 232.133 39.638 232.133 40.3215 227.805 51.2561 226.21 51.2561 230.083 41.0049 224.616 41.0049 224.616 39.638" transform="matrix(1 0 0 1.00051 748.228 120.404)"/><path d="M235.095 49.2059 236.689 49.2059 236.689 51.2561 235.095 51.2561 235.095 49.2059" transform="matrix(1 0 0 1.00051 748.228 120.404)"/><path d="M241.473 49.8893 246.94 49.8893 246.94 51.2561 239.651 51.2561 239.651 49.8893C240.334 49.2059 241.018 48.5224 242.157 47.3834 243.068 46.4722 243.751 45.7888 243.979 45.3332 244.435 44.8776 244.89 44.422 245.118 43.9663 245.346 43.5107 245.346 43.2829 245.346 42.8273 245.346 42.1439 245.118 41.6883 244.662 41.4605 244.207 41.0049 243.751 40.7771 243.068 40.7771 242.612 40.7771 242.157 40.7771 241.473 41.0049 241.018 41.2327 240.334 41.4605 239.651 41.6883L239.651 40.0937C240.334 39.8659 240.79 39.638 241.473 39.638 241.929 39.4102 242.612 39.4102 243.068 39.4102 244.207 39.4102 245.118 39.638 245.801 40.3215 246.485 41.0049 246.94 41.6883 246.94 42.5995 246.94 43.0551 246.94 43.5107 246.713 43.9663 246.485 44.422 246.257 44.8776 245.801 45.561 245.574 45.7888 245.346 46.2444 244.662 46.9278 243.523 47.6112 242.612 48.5224 241.473 49.8893" transform="matrix(1 0 0 1.00051 748.228 120.404)"/><path d="M293.868 62.1907 293.868 58.5459" stroke="#000000" stroke-width="0.838322" stroke-linejoin="round" stroke-miterlimit="10" fill="none" transform="matrix(1 0 0 1.00051 748.228 120.404)"/><path d="M273.366 50.3449 275.872 50.3449 275.872 41.4605 273.138 42.1439 273.138 40.7771 275.872 40.0937 277.239 40.0937 277.239 50.3449 279.972 50.3449 279.972 51.4839 273.366 51.4839 273.366 50.3449" transform="matrix(1 0 0 1.00051 748.228 120.404)"/><path d="M286.123 46.4722C286.806 46.4722 287.262 46.2444 287.718 45.7888 288.173 45.3332 288.401 44.6498 288.401 43.7385 288.401 42.8273 288.173 42.3717 287.718 41.6883 287.262 41.2327 286.806 41.0049 286.123 41.0049 285.44 41.0049 284.984 41.2327 284.528 41.6883 284.073 42.1439 283.845 42.8273 283.845 43.7385 283.845 44.6498 284.073 45.3332 284.528 45.7888 284.984 46.2444 285.44 46.4722 286.123 46.4722M282.934 51.2561 282.934 49.8893C283.389 50.1171 283.617 50.1171 284.073 50.3449 284.528 50.3449 284.756 50.5727 285.212 50.5727 286.123 50.5727 287.034 50.3449 287.49 49.6615 287.945 48.978 288.401 47.839 288.401 46.4722 288.173 46.9278 287.718 47.1556 287.262 47.3834 286.806 47.6112 286.351 47.839 285.667 47.839 284.528 47.839 283.617 47.3834 282.934 46.7 282.25 46.0166 282.022 45.1054 282.022 43.9663 282.022 42.8273 282.478 41.9161 283.161 41.2327 283.845 40.5493 284.756 40.0937 285.895 40.0937 287.262 40.0937 288.173 40.5493 288.857 41.6883 289.54 42.5995 289.996 44.1941 289.996 46.0166 289.996 47.839 289.54 49.2059 288.629 50.3449 287.718 51.4839 286.579 51.9395 285.212 51.9395 284.756 51.9395 284.528 51.9395 284.073 51.9395 283.845 51.7117 283.389 51.4839 282.934 51.2561" transform="matrix(1 0 0 1.00051 748.228 120.404)"/><path d="M296.83 40.0937 298.88 40.0937 298.88 47.6112 300.475 47.6112 300.475 48.978 298.88 48.978 298.88 51.7117 297.285 51.7117 297.285 48.978 292.046 48.978 292.046 47.3834 296.83 40.0937M297.285 41.4605 293.413 47.6112 297.285 47.6112 297.285 41.4605" transform="matrix(1 0 0 1.00051 748.228 120.404)"/><path d="M302.98 49.6615 304.575 49.6615 304.575 51.4839 302.98 51.4839 302.98 49.6615" transform="matrix(1 0 0 1.00051 748.228 120.404)"/><path d="M307.537 40.0937 315.054 40.0937 315.054 40.7771 310.726 51.4839 309.131 51.4839 313.004 41.4605 307.537 41.4605 307.537 40.0937" transform="matrix(1 0 0 1.00051 748.228 120.404)"/><path d="M361.754 62.1907 361.754 58.5459" stroke="#000000" stroke-width="0.838322" stroke-linejoin="round" stroke-miterlimit="10" fill="none" transform="matrix(1 0 0 1.00051 748.228 120.404)"/><path d="M341.252 50.3449 343.758 50.3449 343.758 41.4605 341.024 42.1439 341.024 40.5493 343.758 40.0937 345.124 40.0937 345.124 50.3449 347.858 50.3449 347.858 51.4839 341.252 51.4839 341.252 50.3449" transform="matrix(1 0 0 1.00051 748.228 120.404)"/><path d="M354.009 46.4722C354.692 46.4722 355.148 46.2444 355.603 45.7888 356.059 45.3332 356.287 44.6498 356.287 43.7385 356.287 42.8273 356.059 42.3717 355.603 41.6883 355.148 41.2327 354.692 41.0049 354.009 41.0049 353.325 41.0049 352.87 41.2327 352.414 41.6883 351.959 42.1439 351.731 42.8273 351.731 43.7385 351.731 44.6498 351.959 45.3332 352.414 45.7888 352.87 46.2444 353.325 46.4722 354.009 46.4722M351.047 51.2561 351.047 49.8893C351.503 50.1171 351.731 50.1171 352.186 50.3449 352.642 50.3449 352.87 50.5727 353.325 50.5727 354.237 50.5727 355.148 50.3449 355.603 49.6615 356.059 48.978 356.515 47.839 356.515 46.4722 356.287 46.9278 355.831 47.1556 355.376 47.3834 354.92 47.6112 354.464 47.839 353.781 47.839 352.642 47.839 351.731 47.3834 351.047 46.7 350.364 46.0166 350.136 45.1054 350.136 43.9663 350.136 42.8273 350.592 41.9161 351.275 41.2327 351.959 40.5493 352.87 40.0937 354.009 40.0937 355.376 40.0937 356.287 40.5493 356.97 41.6883 357.654 42.5995 358.109 44.1941 358.109 46.0166 358.109 47.839 357.654 49.2059 356.742 50.3449 355.831 51.4839 354.692 51.9395 353.325 51.9395 352.87 51.9395 352.642 51.9395 352.186 51.9395 351.731 51.4839 351.275 51.4839 351.047 51.2561" transform="matrix(1 0 0 1.00051 748.228 120.404)"/><path d="M362.21 50.3449 367.677 50.3449 367.677 51.7117 360.387 51.7117 360.387 50.3449C361.071 49.6615 361.754 48.978 362.893 47.839 363.804 46.9278 364.488 46.2444 364.716 45.7888 365.171 45.3332 365.627 44.8776 365.855 44.422 366.082 43.9663 366.082 43.7385 366.082 43.2829 366.082 42.5995 365.855 42.1439 365.399 41.9161 364.943 41.4605 364.488 41.2327 363.804 41.2327 363.349 41.2327 362.893 41.2327 362.21 41.4605 361.754 41.6883 361.071 41.9161 360.387 42.1439L360.387 40.5493C361.071 40.3215 361.526 40.0937 362.21 40.0937 362.665 39.8659 363.349 39.8659 363.804 39.8659 364.943 39.8659 365.855 40.0937 366.538 40.7771 367.221 41.4605 367.677 42.1439 367.677 43.0551 367.677 43.5107 367.677 43.9663 367.449 44.422 367.221 44.8776 366.994 45.3332 366.538 46.0166 366.31 46.2444 366.082 46.7 365.399 47.3834 364.488 48.0668 363.349 48.978 362.21 50.3449" transform="matrix(1 0 0 1.00051 748.228 120.404)"/><path d="M370.866 49.6615 372.461 49.6615 372.461 51.4839 370.866 51.4839 370.866 49.6615" transform="matrix(1 0 0 1.00051 748.228 120.404)"/><path d="M377.245 50.3449 382.712 50.3449 382.712 51.7117 375.422 51.7117 375.422 50.3449C376.106 49.6615 376.789 48.978 377.928 47.839 378.84 46.9278 379.523 46.2444 379.751 45.7888 380.206 45.3332 380.662 44.8776 380.89 44.422 381.118 43.9663 381.118 43.7385 381.118 43.2829 381.118 42.5995 380.89 42.1439 380.434 41.9161 379.979 41.4605 379.523 41.2327 378.84 41.2327 378.384 41.2327 377.928 41.2327 377.245 41.4605 376.789 41.6883 376.106 41.9161 375.422 42.1439L375.422 40.5493C376.106 40.3215 376.561 40.0937 377.245 40.0937 377.701 39.8659 378.384 39.8659 378.84 39.8659 379.979 39.8659 380.89 40.0937 381.573 40.7771 382.257 41.4605 382.712 42.1439 382.712 43.0551 382.712 43.5107 382.712 43.9663 382.484 44.422 382.257 44.8776 382.029 45.3332 381.573 46.0166 381.345 46.2444 381.118 46.7 380.434 47.3834 379.523 48.0668 378.384 48.978 377.245 50.3449" transform="matrix(1 0 0 1.00051 748.228 120.404)"/><path d="M429.64 62.6463 429.64 59.0015" stroke="#000000" stroke-width="0.838322" stroke-linejoin="round" stroke-miterlimit="10" fill="none" transform="matrix(1 0 0 1.00051 748.228 120.404)"/><path d="M409.138 50.8005 411.643 50.8005 411.643 41.9161 408.91 42.5995 408.91 41.2327 411.643 40.5493 413.238 40.5493 413.238 50.8005 415.744 50.8005 415.744 52.1673 409.138 52.1673 409.138 50.8005" transform="matrix(1 0 0 1.00051 748.228 120.404)"/><path d="M420.072 43.5107C420.072 44.1941 420.3 44.6498 420.528 44.8776 420.983 45.1054 421.439 45.3332 422.122 45.3332 422.806 45.3332 423.261 45.1054 423.717 44.8776 424.173 44.6498 424.173 43.9663 424.173 43.5107 424.173 42.8273 423.945 42.3717 423.717 42.1439 423.261 41.9161 422.806 41.6883 422.122 41.6883 421.439 41.6883 420.983 41.9161 420.528 42.1439 420.3 42.3717 420.072 42.8273 420.072 43.5107M420.528 46.0166C419.844 45.7888 419.389 45.561 418.933 45.1054 418.478 44.6498 418.478 44.1941 418.478 43.5107 418.478 42.5995 418.705 41.9161 419.389 41.2327 420.072 40.7771 420.983 40.3215 422.122 40.3215 423.261 40.3215 424.173 40.5493 424.856 41.2327 425.54 41.6883 425.767 42.5995 425.767 43.5107 425.767 44.1941 425.54 44.6498 425.312 45.1054 424.856 45.561 424.4 45.7888 423.717 46.0166 424.4 46.2444 425.084 46.4722 425.54 46.9278 425.995 47.3834 426.223 48.0668 426.223 48.7502 426.223 49.8893 425.767 50.8005 425.312 51.2561 424.628 51.9395 423.717 52.1673 422.35 52.1673 420.983 52.1673 420.072 51.9395 419.389 51.2561 418.705 50.5727 418.478 49.8893 418.478 48.7502 418.478 48.0668 418.705 47.3834 419.161 46.9278 419.161 46.4722 419.844 46.2444 420.528 46.0166M422.122 46.7C421.439 46.7 420.756 46.9278 420.3 47.3834 419.844 47.839 419.617 48.2946 419.617 48.978 419.617 49.6615 419.844 50.1171 420.3 50.5727 420.756 51.0283 421.211 51.2561 422.122 51.2561 422.806 51.2561 423.489 51.0283 423.945 50.5727 424.4 50.1171 424.628 49.6615 424.628 48.978 424.628 48.2946 424.4 47.839 423.945 47.3834 423.489 46.9278 422.806 46.7 422.122 46.7" transform="matrix(1 0 0 1.00051 748.228 120.404)"/><path d="M431.918 46.9278C432.601 46.9278 433.057 46.7 433.513 46.2444 433.968 45.7888 434.196 45.1054 434.196 44.1941 434.196 43.2829 433.968 42.8273 433.513 42.1439 433.057 41.6883 432.601 41.4605 431.918 41.4605 431.235 41.4605 430.779 41.6883 430.323 42.1439 429.868 42.5995 429.64 43.2829 429.64 44.1941 429.64 45.1054 429.868 45.7888 430.323 46.2444 430.779 46.7 431.235 46.9278 431.918 46.9278M428.957 51.9395 428.957 50.5727C429.412 50.8005 429.64 50.8005 430.096 51.0283 430.551 51.0283 430.779 51.2561 431.235 51.2561 432.146 51.2561 433.057 51.0283 433.513 50.3449 433.968 49.6615 434.424 48.5224 434.424 47.1556 434.196 47.6112 433.74 47.839 433.285 48.0668 432.829 48.2946 432.374 48.5224 431.69 48.5224 430.551 48.5224 429.64 48.0668 428.957 47.3834 428.273 46.7 428.045 45.7888 428.045 44.6498 428.045 43.5107 428.501 42.5995 429.184 41.9161 429.868 41.2327 430.779 40.7771 431.918 40.7771 433.285 40.7771 434.196 41.2327 434.879 42.3717 435.563 43.2829 436.019 44.8776 436.019 46.7 436.019 48.5224 435.563 49.8893 434.652 51.0283 433.74 52.1673 432.601 52.6229 431.235 52.6229 430.779 52.6229 430.551 52.6229 430.096 52.6229 429.64 52.1673 429.412 51.9395 428.957 51.9395" transform="matrix(1 0 0 1.00051 748.228 120.404)"/><path d="M438.752 50.1171 440.347 50.1171 440.347 52.1673 438.752 52.1673 438.752 50.1171" transform="matrix(1 0 0 1.00051 748.228 120.404)"/><path d="M443.536 40.5493 450.826 40.5493 450.826 41.2327 446.725 52.1673 445.131 52.1673 449.003 41.9161 443.536 41.9161 443.536 40.5493" transform="matrix(1 0 0 1.00051 748.228 120.404)"/><path d="M191.584 23.9195 198.19 23.9195 198.19 25.2863 193.179 25.2863 193.179 28.7034 197.735 28.7034 197.735 29.8424 193.179 29.8424 193.179 35.3098 191.584 35.3098 191.584 23.9195" transform="matrix(1 0 0 1.00051 748.228 120.404)"/><path d="M205.708 28.2478C205.48 28.2478 205.48 28.02 205.252 28.02 205.024 28.02 204.797 28.02 204.569 28.02 203.658 28.02 203.202 28.2478 202.746 28.7034 202.291 29.159 202.063 30.0702 202.063 30.9815L202.063 35.5376 200.468 35.5376 200.468 26.881 201.835 26.881 201.835 28.2478C202.063 27.7922 202.519 27.3366 202.974 27.1088 203.43 26.881 204.113 26.6532 204.797 26.6532 204.797 26.6532 205.024 26.6532 205.024 26.6532 205.024 26.6532 205.252 26.6532 205.48 26.6532L205.48 28.2478" transform="matrix(1 0 0 1.00051 748.228 120.404)"/><path d="M212.998 30.298C212.998 29.6146 212.77 28.9312 212.314 28.4756 211.859 28.02 211.403 27.7922 210.72 27.7922 210.036 27.7922 209.353 28.02 208.897 28.4756 208.441 28.9312 208.214 29.6146 207.986 30.298L212.998 30.298M214.364 30.7537 214.364 31.4371 207.986 31.4371C207.986 32.3483 208.441 33.2595 208.897 33.7151 209.353 34.1707 210.036 34.3985 211.175 34.3985 211.631 34.3985 212.314 34.3985 212.77 34.1707 213.225 33.9429 213.681 33.9429 214.364 33.4873L214.364 34.8541C213.909 35.082 213.453 35.3098 212.77 35.3098 212.314 35.3098 211.631 35.5376 211.175 35.5376 209.808 35.5376 208.669 35.082 207.986 34.3985 207.075 33.7151 206.847 32.5761 206.847 31.2093 206.847 29.8424 207.302 28.7034 207.986 27.7922 208.669 26.881 209.808 26.6532 211.175 26.6532 212.314 26.6532 213.225 27.1088 213.909 27.7922 214.137 28.4756 214.364 29.3868 214.364 30.7537" transform="matrix(1 0 0 1.00051 748.228 120.404)"/><path d="M222.338 34.1707C222.11 34.6263 221.654 35.082 221.199 35.3098 220.743 35.5376 220.287 35.7654 219.604 35.7654 218.465 35.7654 217.781 35.3098 217.098 34.6263 216.415 33.9429 216.187 32.8039 216.187 31.4371 216.187 30.0702 216.415 28.9312 217.098 28.2478 217.781 27.3366 218.693 27.1088 219.604 27.1088 220.287 27.1088 220.743 27.3366 221.199 27.5644 221.654 27.7922 222.11 28.2478 222.338 28.7034L222.338 27.3366 223.704 27.3366 223.704 38.7268 222.338 38.7268 222.338 34.1707M217.554 31.2093C217.554 32.3483 217.781 33.0317 218.237 33.7151 218.693 34.3985 219.148 34.6263 220.06 34.6263 220.743 34.6263 221.426 34.3985 221.882 33.7151 222.338 33.0317 222.565 32.3483 222.565 31.2093 222.565 30.0702 222.338 29.3868 221.882 28.7034 221.426 28.02 220.971 27.7922 220.06 27.7922 219.376 27.7922 218.693 28.02 218.237 28.7034 217.781 29.3868 217.554 30.0702 217.554 31.2093" transform="matrix(1 0 0 1.00051 748.228 120.404)"/><path d="M230.083 26.6532 230.083 26.6532M226.666 32.1205 226.666 26.881 228.033 26.881 228.033 31.8927C228.033 32.8039 228.26 33.2595 228.488 33.7151 228.716 34.1707 229.172 34.3985 229.855 34.3985 230.539 34.3985 231.222 34.1707 231.678 33.7151 232.133 33.2595 232.361 32.5761 232.361 31.6649L232.361 26.881 233.728 26.881 233.728 35.5376 232.361 35.5376 232.361 34.1707C231.905 34.6263 231.678 35.082 231.222 35.3098 230.766 35.5376 230.311 35.7654 229.627 35.7654 228.716 35.7654 227.805 35.5376 227.349 34.8541 226.894 34.1707 226.666 33.2595 226.666 32.1205" transform="matrix(1 0 0 1.00051 748.228 120.404)"/><path d="M242.612 30.298C242.612 29.6146 242.384 28.9312 241.929 28.4756 241.473 28.02 241.018 27.7922 240.334 27.7922 239.651 27.7922 238.967 28.02 238.512 28.4756 238.056 28.9312 237.828 29.6146 237.6 30.298L242.612 30.298M243.979 30.7537 243.979 31.4371 237.6 31.4371C237.6 32.3483 238.056 33.2595 238.512 33.7151 238.967 34.1707 239.651 34.3985 240.79 34.3985 241.245 34.3985 241.929 34.3985 242.384 34.1707 242.84 33.9429 243.296 33.9429 243.979 33.4873L243.979 34.8541C243.523 35.082 243.068 35.3098 242.384 35.3098 241.929 35.3098 241.245 35.5376 240.79 35.5376 239.423 35.5376 238.284 35.082 237.6 34.3985 236.689 33.7151 236.461 32.5761 236.461 31.2093 236.461 29.8424 236.917 28.7034 237.6 27.7922 238.284 26.881 239.423 26.6532 240.79 26.6532 241.929 26.6532 242.84 27.1088 243.523 27.7922 243.751 28.4756 243.979 29.3868 243.979 30.7537" transform="matrix(1 0 0 1.00051 748.228 120.404)"/><path d="M253.547 30.298 253.547 35.5376 252.18 35.5376 252.18 30.298C252.18 29.3868 251.952 28.9312 251.724 28.4756 251.497 28.02 251.041 27.7922 250.358 27.7922 249.674 27.7922 248.991 28.02 248.535 28.4756 248.08 28.9312 247.852 29.6146 247.852 30.5259L247.852 35.3098 246.485 35.3098 246.485 26.6532 247.852 26.6532 247.852 28.02C248.08 27.5644 248.535 27.1088 248.991 26.881 249.446 26.6532 249.902 26.4254 250.585 26.4254 251.497 26.4254 252.408 26.6532 252.863 27.3366 253.319 28.2478 253.547 29.159 253.547 30.298" transform="matrix(1 0 0 1.00051 748.228 120.404)"/><path d="M262.431 27.1088 262.431 28.4756C261.976 28.2478 261.52 28.02 261.292 28.02 261.064 28.02 260.381 27.7922 260.153 27.7922 259.242 27.7922 258.559 28.02 258.103 28.7034 257.647 29.3868 257.419 30.0702 257.419 31.2093 257.419 32.3483 257.647 33.0317 258.103 33.7151 258.559 34.3985 259.242 34.6263 260.153 34.6263 260.609 34.6263 261.064 34.6263 261.292 34.3985 261.748 34.3985 262.203 34.1707 262.431 33.9429L262.431 35.3098C261.976 35.5376 261.52 35.5376 261.292 35.7654 260.837 35.7654 260.381 35.9932 259.925 35.9932 258.559 35.9932 257.647 35.5376 256.736 34.8541 256.053 33.9429 255.597 33.0317 255.597 31.6649 255.597 30.298 256.053 29.159 256.736 28.4756 257.419 27.5644 258.559 27.3366 259.925 27.3366 260.381 27.3366 260.837 27.3366 261.292 27.5644 261.748 26.881 262.203 26.881 262.431 27.1088" transform="matrix(1 0 0 1.00051 748.228 120.404)"/><path d="M268.582 36.221C268.126 37.1322 267.671 37.8156 267.443 38.2712 266.987 38.499 266.532 38.7268 265.848 38.7268L264.709 38.7268 264.709 37.5878 265.62 37.5878C266.076 37.5878 266.304 37.5878 266.532 37.36 266.759 37.1322 266.987 36.6766 267.215 35.9932L267.443 35.3098 264.026 26.881 265.62 26.881 268.354 33.7151 271.088 26.881 272.682 26.881 268.582 36.221" transform="matrix(1 0 0 1.00051 748.228 120.404)"/><path d="M282.706 23.4639C282.022 24.6029 281.567 25.742 281.111 26.881 280.656 28.02 280.656 29.159 280.656 30.298 280.656 31.4371 280.883 32.5761 281.111 33.7151 281.339 34.8541 282.022 35.9932 282.706 37.1322L281.567 37.1322C280.883 35.9932 280.2 34.8541 279.744 33.4873 279.289 32.3483 279.289 31.2093 279.289 30.0702 279.289 28.9312 279.517 27.7922 279.744 26.6532 280.2 25.5141 280.656 24.3751 281.567 23.0083L282.706 23.0083" transform="matrix(1 0 0 1.00051 748.228 120.404)"/><path d="M283.845 23.9195 293.64 23.9195 293.64 25.2863 289.54 25.2863 289.54 35.3098 287.945 35.3098 287.945 25.2863 283.845 25.2863 283.845 23.9195" transform="matrix(1 0 0 1.00051 748.228 120.404)"/><path d="M295.007 23.9195 296.602 23.9195 296.602 28.7034 302.297 28.7034 302.297 23.9195 303.892 23.9195 303.892 35.3098 302.297 35.3098 302.297 30.0702 296.602 30.0702 296.602 35.3098 295.007 35.3098 295.007 23.9195" transform="matrix(1 0 0 1.00051 748.228 120.404)"/><path d="M306.17 26.881 313.004 26.881 313.004 28.02 307.537 34.3985 313.004 34.3985 313.004 35.3098 305.942 35.3098 305.942 34.1707 311.409 28.02 306.17 28.02 306.17 26.881" transform="matrix(1 0 0 1.00051 748.228 120.404)"/><path d="M314.826 23.4639 315.965 23.4639C316.649 24.6029 317.332 25.742 317.788 27.1088 318.243 28.2478 318.471 29.3868 318.471 30.5259 318.471 31.6649 318.243 32.8039 317.788 33.9429 317.332 35.082 316.877 36.221 315.965 37.5878L314.826 37.5878C315.51 36.4488 315.965 35.3098 316.421 34.1707 316.649 33.0317 316.877 31.8927 316.877 30.7537 316.877 29.6146 316.649 28.4756 316.421 27.3366 315.965 25.742 315.51 24.6029 314.826 23.4639" transform="matrix(1 0 0 1.00051 748.228 120.404)"/></g></svg>